<?xml version="1.0" encoding="utf-8"?>
<!-- Generator: Adobe Illustrator 21.1.0, SVG Export Plug-In . SVG Version: 6.00 Build 0)  -->
<svg version="1.1" id="Layer_1" xmlns="http://www.w3.org/2000/svg" xmlns:xlink="http://www.w3.org/1999/xlink" x="0px" y="0px"
	 viewBox="0 0 100.3 28" style="enable-background:new 0 0 100.3 28;" xml:space="preserve">
<style type="text/css">
	.st0{fill:#F3BD11;}
</style>
<g>
	<path class="st0" d="M21.3,17.2c-0.6-0.6-1.2-0.9-1.9-0.9c-0.7,0-1.4,0.3-2,0.9L15.7,19c-0.1-0.1-0.3-0.2-0.4-0.2
		c-0.2-0.1-0.4-0.2-0.6-0.3C13,17.4,11.4,16,10,14.2c-0.7-0.9-1.2-1.7-1.5-2.4c0.5-0.4,0.9-0.9,1.3-1.3c0.2-0.2,0.3-0.3,0.5-0.5
		c1.2-1.2,1.2-2.8,0-3.9L8.7,4.5C8.5,4.3,8.3,4.1,8.1,3.9C7.8,3.6,7.4,3.2,7.1,2.9C6.5,2.3,5.9,2,5.2,2C4.5,2,3.8,2.3,3.2,2.9l0,0
		l-1.9,2C0.5,5.6,0.1,6.5,0,7.5c-0.1,1.7,0.4,3.2,0.7,4.2c0.9,2.5,2.3,4.8,4.4,7.3c2.5,3,5.5,5.3,8.9,7c1.3,0.6,3.1,1.4,5,1.5
		c0.1,0,0.2,0,0.4,0c1.3,0,2.4-0.5,3.3-1.4c0,0,0,0,0,0c0.3-0.4,0.6-0.7,1-1c0.2-0.2,0.5-0.5,0.7-0.7c0.6-0.6,0.9-1.3,0.9-2
		c0-0.7-0.3-1.4-0.9-2L21.3,17.2z M23.4,23.2C23.4,23.2,23.4,23.2,23.4,23.2c-0.2,0.2-0.5,0.5-0.7,0.7c-0.4,0.4-0.7,0.7-1.1,1.1
		C21,25.7,20.3,26,19.4,26c-0.1,0-0.2,0-0.3,0c-1.7-0.1-3.3-0.8-4.5-1.3c-3.2-1.6-6.1-3.8-8.4-6.6c-1.9-2.3-3.2-4.5-4.1-6.8
		C1.7,9.8,1.5,8.7,1.6,7.6C1.6,7,1.9,6.4,2.4,5.9L4.3,4c0.3-0.3,0.6-0.4,0.9-0.4C5.5,3.6,5.8,3.8,6,4l0,0c0.3,0.3,0.7,0.7,1,1
		c0.2,0.2,0.4,0.4,0.5,0.6l1.6,1.6c0.6,0.6,0.6,1.2,0,1.8C9,9.1,8.8,9.2,8.7,9.4c-0.5,0.5-0.9,0.9-1.4,1.4c0,0,0,0,0,0
		c-0.5,0.5-0.4,1-0.3,1.3l0,0.1c0.4,1,1,1.9,1.8,3l0,0c1.6,1.9,3.2,3.5,5.1,4.6c0.2,0.1,0.5,0.3,0.7,0.4c0.2,0.1,0.4,0.2,0.6,0.3
		c0,0,0,0,0.1,0c0.2,0.1,0.4,0.1,0.6,0.1c0.5,0,0.8-0.3,0.9-0.4l2-2c0.2-0.2,0.5-0.4,0.9-0.4c0.4,0,0.6,0.2,0.8,0.4l3.2,3.2
		C24,22,24,22.6,23.4,23.2L23.4,23.2z M23.4,23.2"/>
	<path class="st0" d="M14.6,6.9c1.5,0.3,2.9,1,3.9,2c1.1,1.1,1.8,2.4,2,3.9c0.1,0.4,0.4,0.6,0.8,0.6c0,0,0.1,0,0.1,0
		c0.4-0.1,0.7-0.5,0.6-0.9c-0.3-1.8-1.2-3.5-2.5-4.8c-1.3-1.3-3-2.2-4.8-2.5C14.4,5.3,14,5.6,14,6C13.9,6.4,14.2,6.8,14.6,6.9
		L14.6,6.9z M14.6,6.9"/>
	<path class="st0" d="M27,12.4c-0.5-3-1.9-5.7-4.1-7.8c-2.2-2.2-4.9-3.6-7.8-4.1c-0.4-0.1-0.8,0.2-0.9,0.6c-0.1,0.4,0.2,0.8,0.6,0.9
		c2.7,0.5,5.1,1.7,7,3.6c1.9,1.9,3.2,4.4,3.6,7c0.1,0.4,0.4,0.6,0.8,0.6c0,0,0.1,0,0.1,0C26.8,13.2,27.1,12.8,27,12.4L27,12.4z
		 M27,12.4"/>
</g>
<g>
	<path d="M39.4,14.7l-2.7-0.9l0.6-2l2.8,0.9l0-2.9h2.1l0.1,3L45,12l0.6,2l-2.7,0.9l1.6,2.4l-1.7,1.2l-1.7-2.4l-1.7,2.3l-1.7-1.2
		L39.4,14.7z"/>
	<path d="M58.8,16.4c0,2-0.5,3.6-1.6,4.7s-2.4,1.7-4.2,1.7c-1.8,0-3.2-0.6-4.2-1.7s-1.6-2.7-1.6-4.7v-4.7c0-2,0.5-3.6,1.6-4.7
		s2.4-1.7,4.2-1.7c1.7,0,3.1,0.6,4.2,1.7s1.6,2.7,1.6,4.7V16.4z M55.4,11.3c0-1.1-0.2-1.9-0.6-2.5s-1-0.9-1.7-0.9
		c-0.8,0-1.3,0.3-1.7,0.9s-0.6,1.4-0.6,2.5v5.4c0,1.1,0.2,2,0.6,2.6s1,0.9,1.8,0.9c0.7,0,1.3-0.3,1.7-0.9s0.6-1.5,0.6-2.6V11.3z"/>
	<path d="M72.8,8.1c-1.9,2.3-3.2,4.3-3.9,6.1s-1,3.9-1,6.2v2.1h-3.4v-2.1c0-2.4,0.4-4.5,1.3-6.5s2.1-3.9,3.8-5.8h-8.7V5.5h12V8.1z"
		/>
	<path d="M83,22.5h-3.4V8.4h-3.5V5.8L83,5.2V22.5z"/>
	<path d="M94.3,12.5c0.8,0,1.4-0.2,1.8-0.6s0.6-1,0.6-1.8c0-0.6-0.2-1.2-0.6-1.6s-1-0.6-1.7-0.6c-0.6,0-1.2,0.2-1.6,0.6
		s-0.6,0.9-0.6,1.5h-3.3l0-0.1c0-1.3,0.5-2.4,1.5-3.3s2.4-1.3,4-1.3c1.8,0,3.2,0.4,4.2,1.2s1.6,2,1.6,3.6c0,0.8-0.2,1.5-0.7,2.2
		s-1.1,1.2-1.8,1.5c0.9,0.3,1.6,0.8,2.1,1.5s0.7,1.5,0.7,2.5c0,1.6-0.6,2.8-1.7,3.7s-2.6,1.3-4.3,1.3c-1.6,0-2.9-0.4-4.1-1.3
		s-1.7-2-1.7-3.6l0-0.1h3.3c0,0.6,0.2,1.2,0.7,1.6s1,0.7,1.7,0.7c0.8,0,1.4-0.2,1.9-0.7s0.7-1,0.7-1.7c0-0.9-0.2-1.6-0.7-2
		s-1.1-0.7-2-0.7h-1.9v-2.6H94.3z"/>
</g>
</svg>
