<?xml version="1.0" encoding="utf-8"?>
<!-- Generator: Adobe Illustrator 21.1.0, SVG Export Plug-In . SVG Version: 6.00 Build 0)  -->
<svg version="1.1" id="Layer_1" xmlns="http://www.w3.org/2000/svg" xmlns:xlink="http://www.w3.org/1999/xlink" x="0px" y="0px"
	 viewBox="0 0 55 52" style="enable-background:new 0 0 55 52;" xml:space="preserve">
<style type="text/css">
	.st0{fill:#FFFFFF;}
</style>
<g>
	<path class="st0" d="M54.9,15.7C54.1,6.8,47.9,0.4,40,0.4c-5.2,0-10,2.8-12.7,7.3C24.7,3.2,20.1,0.4,15,0.4
		C7.1,0.4,0.9,6.8,0.1,15.7c-0.1,0.4-0.3,2.4,0.5,5.8c1.1,4.8,3.8,9.2,7.6,12.7l19.2,17.4l19.5-17.4c3.8-3.5,6.5-7.9,7.6-12.7
		C55.2,18.1,55,16.1,54.9,15.7L54.9,15.7z M52.4,21c-1,4.4-3.5,8.4-7,11.6L27.3,48.7L9.6,32.6c-3.5-3.2-5.9-7.2-7-11.6
		c-0.7-3.2-0.4-5-0.4-5l0-0.1C2.9,8.2,8.3,2.5,15,2.5c5,0,9.3,3,11.4,7.9l1,2.3l1-2.3c2-4.8,6.6-7.9,11.7-7.9
		c6.7,0,12.1,5.6,12.8,13.5C52.8,16,53.1,17.8,52.4,21L52.4,21z M52.4,21"/>
	<path class="st0" d="M16.9,6.9c-5.8,0-10.6,4.7-10.6,10.6c0,0.6,0.5,1.1,1.1,1.1c0.6,0,1.1-0.5,1.1-1.1c0-4.7,3.8-8.5,8.5-8.5
		C17.5,9,18,8.5,18,7.9C18,7.3,17.5,6.9,16.9,6.9L16.9,6.9z M16.9,6.9"/>
</g>
</svg>
