<?xml version="1.0" encoding="utf-8"?>
<!-- Generator: Adobe Illustrator 21.1.0, SVG Export Plug-In . SVG Version: 6.00 Build 0)  -->
<svg version="1.1" id="Layer_1" xmlns="http://www.w3.org/2000/svg" xmlns:xlink="http://www.w3.org/1999/xlink" x="0px" y="0px"
	 viewBox="0 0 54 54" style="enable-background:new 0 0 54 54;" xml:space="preserve">
<style type="text/css">
	.st0{fill:#3B3B3B;}
</style>
<g>
	<path class="st0" d="M51.4,2.6c-3.4-3.4-9-3.4-12.4,0L3.7,37.8c0,0,0,0,0,0.1c0,0,0,0-0.1,0.1c-0.1,0.1-0.1,0.1-0.1,0.2
		c0,0,0,0,0,0.1c0,0,0,0,0,0L0,52.8c0,0.1,0,0.1,0,0.2c0,0,0,0,0,0c0,0.1,0,0.2,0.1,0.3c0,0,0,0,0,0.1c0,0.1,0.1,0.2,0.2,0.3
		c0.1,0.1,0.2,0.2,0.3,0.2C0.7,54,0.8,54,1,54c0.1,0,0.2,0,0.2,0l14.5-3.5c0,0,0,0,0.1,0c0,0,0.1,0,0.1,0c0.1,0,0.1-0.1,0.2-0.1
		c0,0,0,0,0.1-0.1c0,0,0,0,0,0L51.4,15C54.9,11.6,54.9,6,51.4,2.6L51.4,2.6z M50,4c2.4,2.4,2.6,6.3,0.6,8.9l-9.6-9.6
		C43.8,1.3,47.6,1.5,50,4L50,4z M45.2,18.5l-9.7-9.7l1.4-1.4l9.7,9.7L45.2,18.5z M4.8,49.1c-0.4-0.4-1-0.4-1.4,0l-0.7,0.7l2.5-10.5
		l4.3-0.5l-0.6,5C9,44,9,44,9,44c0,0,0,0.1,0,0.1c0,0,0,0.1,0,0.1c0,0.1,0,0.1,0,0.2c0,0.1,0.1,0.1,0.1,0.2c0,0,0.1,0.1,0.1,0.1
		c0,0,0.1,0.1,0.2,0.1c0,0,0.1,0.1,0.1,0.1c0.1,0,0.1,0,0.2,0.1c0,0,0.1,0,0.1,0c0,0,0.1,0,0.1,0h0c0,0,0.1,0,0.1,0l5-0.6l-0.5,4.3
		L4.1,51.3l0.7-0.7C5.2,50.2,5.2,49.5,4.8,49.1L4.8,49.1z M17.1,43.8L39,21.9c0.4-0.4,0.4-1,0-1.4c-0.4-0.4-1-0.4-1.4,0L15.7,42.4
		l-4.7,0.5l0.5-4.7l21.9-21.9c0.4-0.4,0.4-1,0-1.4c-0.4-0.4-1-0.4-1.4,0L10.2,36.9l-3.1,0.3l27.1-27.1l9.7,9.7L16.8,46.9L17.1,43.8z
		 M48,15.7L38.3,6l1.4-1.4l9.7,9.7L48,15.7z M48,15.7"/>
</g>
</svg>
