<?xml version="1.0" encoding="utf-8"?>
<!-- Generator: Adobe Illustrator 21.1.0, SVG Export Plug-In . SVG Version: 6.00 Build 0)  -->
<svg version="1.1" id="Layer_1" xmlns="http://www.w3.org/2000/svg" xmlns:xlink="http://www.w3.org/1999/xlink" x="0px" y="0px"
	 viewBox="0 0 65 65" style="enable-background:new 0 0 65 65;" xml:space="preserve">
<style type="text/css">
	.st0{fill:#FFFFFF;}
</style>
<g>
	<path class="st0" d="M32.5,0C14.6,0,0,14.6,0,32.5S14.6,65,32.5,65S65,50.4,65,32.5S50.4,0,32.5,0L32.5,0z M49.8,7.3l-0.5,0.1
		L44,4.2C46.1,5,48,6.1,49.8,7.3L49.8,7.3z M14.9,7.7l10.4-1l-0.7,8.1l-11.2,6.2L9,16.7L14.9,7.7z M3.8,43L3.8,43
		c0.2,0.1,0.3,0.1,0.4,0.1c0.4,0,0.8-0.2,0.9-0.6c0.2-0.5-0.1-1.1-0.6-1.3L3,40.6c-0.7-2.6-1.1-5.3-1.1-8.1c0-7.6,2.8-14.6,7.5-20
		l-2.5,3.8c-0.3,0.4-0.2,0.9,0.1,1.2l5.5,5.3c0.2,0.2,0.4,0.3,0.7,0.3c0.2,0,0.3,0,0.5-0.1L26,16.2c0.3-0.2,0.5-0.4,0.5-0.8l0.8-9.7
		c0-0.3-0.1-0.6-0.3-0.8c-0.2-0.2-0.5-0.3-0.8-0.3l-7.8,0.7c4.2-2.2,9-3.4,14-3.4l-3.6,1.6c-0.5,0.2-0.7,0.8-0.5,1.3
		c0.2,0.4,0.5,0.6,0.9,0.6c0.1,0,0.3,0,0.4-0.1l4.2-1.9c0.5-0.2,0.7-0.8,0.5-1.3c0-0.1-0.1-0.1-0.1-0.2c1,0.1,2,0.2,3,0.3l11.3,6.9
		c0.2,0.1,0.3,0.1,0.5,0.1c0,0,0.1,0,0.1,0l2.8-0.4c5.6,4.7,9.6,11.3,10.8,18.9l-1,1.2L59,28.7c-0.5-0.1-1,0.3-1.1,0.8
		c-0.1,0.5,0.3,1,0.8,1.1l2.6,0.4l1.5,5.2c-0.7,5.6-2.9,10.8-6.2,15.1L49,51c-0.2,0-0.4,0-0.5,0.1l-11.6,7c-0.3,0.2-0.5,0.6-0.5,1
		l0.5,3.7c-1.4,0.2-2.9,0.3-4.4,0.3C19.3,63.1,8.1,54.7,3.8,43L3.8,43z M38.8,62.4l-0.4-2.9l10.8-6.5l5.8,0.2
		C50.8,57.8,45.2,61.1,38.8,62.4L38.8,62.4z M38.8,62.4"/>
	<path class="st0" d="M49,15.9c0.5,0,1-0.4,1-1v-4.1c0-0.5-0.4-1-1-1c-0.5,0-1,0.4-1,1v4.1C48,15.5,48.5,15.9,49,15.9L49,15.9z
		 M49,15.9"/>
	<path class="st0" d="M49,41.9c-0.5,0-1,0.4-1,1v6.6c0,0.5,0.4,1,1,1c0.5,0,1-0.4,1-1v-6.6C50,42.3,49.5,41.9,49,41.9L49,41.9z
		 M49,41.9"/>
	<path class="st0" d="M49,41.3c0.3,0,0.6-0.2,0.8-0.4L57,30.1c0.2-0.3,0.2-0.7,0-1l-6.8-11.8c-0.2-0.4-0.7-0.6-1.1-0.4l-12.7,4
		c-0.4,0.1-0.7,0.5-0.7,0.9L35.3,35c0,0.4,0.2,0.8,0.6,0.9l12.7,5.3C48.7,41.3,48.9,41.3,49,41.3L49,41.3z M37.7,22.4L49,18.8
		l6.1,10.6l-6.4,9.6l-11.3-4.7L37.7,22.4z M37.7,22.4"/>
	<path class="st0" d="M25.6,41.8l-11.4-6.3c-0.4-0.2-0.8-0.1-1.1,0.1l-6.8,6.3c-0.3,0.3-0.4,0.8-0.2,1.2l7.8,12.3
		c0.2,0.3,0.5,0.4,0.8,0.4c0,0,0,0,0.1,0l10.8-0.6c0.5,0,0.9-0.5,0.9-1l-0.4-11.6C26,42.3,25.9,42,25.6,41.8L25.6,41.8z M15.2,53.9
		L8.1,42.8l5.7-5.3l10.3,5.7l0.4,10.1L15.2,53.9z M15.2,53.9"/>
	<path class="st0" d="M28,41.8l6.4-4.4c0.4-0.3,0.6-0.9,0.3-1.3c-0.3-0.4-0.9-0.6-1.3-0.3l-6.4,4.4c-0.4,0.3-0.6,0.9-0.3,1.3
		c0.2,0.3,0.5,0.4,0.8,0.4C27.7,42,27.9,42,28,41.8L28,41.8z M28,41.8"/>
	<path class="st0" d="M35.3,57.1l-6.9-2.7c-0.5-0.2-1.1,0-1.3,0.5c-0.2,0.5,0,1.1,0.5,1.3l6.9,2.7c0.1,0,0.2,0.1,0.4,0.1
		c0.4,0,0.8-0.2,0.9-0.6C36,57.8,35.8,57.3,35.3,57.1L35.3,57.1z M35.3,57.1"/>
	<path class="st0" d="M27.3,17.5l6.7,3.8c0.2,0.1,0.3,0.1,0.5,0.1c0.3,0,0.7-0.2,0.8-0.5c0.3-0.5,0.1-1.1-0.4-1.3l-6.7-3.8
		c-0.5-0.3-1.1-0.1-1.3,0.4C26.7,16.6,26.8,17.2,27.3,17.5L27.3,17.5z M27.3,17.5"/>
	<path class="st0" d="M13.2,34.3c0.5,0,1-0.4,1-1v-8.2c0-0.5-0.4-1-1-1c-0.5,0-1,0.4-1,1v8.2C12.3,33.8,12.7,34.3,13.2,34.3
		L13.2,34.3z M13.2,34.3"/>
</g>
</svg>
