<?xml version="1.0" encoding="utf-8"?>
<!-- Generator: Adobe Illustrator 21.1.0, SVG Export Plug-In . SVG Version: 6.00 Build 0)  -->
<svg version="1.1" id="Layer_1" xmlns="http://www.w3.org/2000/svg" xmlns:xlink="http://www.w3.org/1999/xlink" x="0px" y="0px"
	 viewBox="0 0 48 62" style="enable-background:new 0 0 48 62;" xml:space="preserve">
<style type="text/css">
	.st0{fill:#3B3B3B;}
</style>
<g>
	<path class="st0" d="M46.6,8.3c-15,0-21.8-7.8-21.9-7.9c-0.4-0.5-1.2-0.5-1.6,0c-0.1,0.1-6.7,7.9-21.9,7.9c-0.6,0-1,0.5-1,1V29
		c0,10.8,4.8,21,12.9,27.3c3.3,2.6,6.8,4.4,10.5,5.5c0.1,0,0.2,0,0.3,0c0.1,0,0.2,0,0.3,0c3.7-1.1,7.2-3,10.5-5.5
		c8.1-6.4,12.9-16.6,12.9-27.3V9.3C47.6,8.7,47.2,8.3,46.6,8.3L46.6,8.3z M45.6,29c0,10.1-4.5,19.7-12.1,25.7c-3,2.3-6.2,4-9.5,5.1
		c-3.3-1-6.5-2.7-9.5-5.1C6.8,48.7,2.3,39.1,2.3,29V10.3C14.9,10,21.7,4.7,23.9,2.5c2.2,2.1,9,7.5,21.6,7.8V29z M45.6,29"/>
	<path class="st0" d="M39.1,27.7c-0.1-0.4-0.4-0.6-0.8-0.7l-8.6-1.2L25.9,18c-0.2-0.3-0.5-0.6-0.9-0.6c-0.4,0-0.7,0.2-0.9,0.6
		l-3.8,7.8L11.7,27c-0.4,0.1-0.7,0.3-0.8,0.7c-0.1,0.4,0,0.7,0.3,1l6.2,6.1l-1.5,8.6c-0.1,0.4,0.1,0.7,0.4,1c0.3,0.2,0.7,0.3,1,0.1
		l7.7-4l7.7,4c0.1,0.1,0.3,0.1,0.5,0.1c0.2,0,0.4-0.1,0.6-0.2c0.3-0.2,0.5-0.6,0.4-1l-1.5-8.6l6.2-6.1C39.1,28.4,39.2,28,39.1,27.7z
		 M25.4,38.3c-0.3-0.2-0.6-0.2-0.9,0l-6.4,3.3l1.2-7.1c0.1-0.3-0.1-0.7-0.3-0.9l-5.2-5l7.1-1c0.3,0,0.6-0.2,0.7-0.5l3.2-6.5l3.2,6.5
		c0.1,0.3,0.4,0.5,0.7,0.5l7.1,1l-5.2,5c-0.2,0.2-0.3,0.6-0.3,0.9l1.2,7.1L25.4,38.3z"/>
</g>
</svg>
