<?xml version="1.0" encoding="utf-8"?>
<!-- Generator: Adobe Illustrator 21.1.0, SVG Export Plug-In . SVG Version: 6.00 Build 0)  -->
<svg version="1.1" id="Layer_1" xmlns="http://www.w3.org/2000/svg" xmlns:xlink="http://www.w3.org/1999/xlink" x="0px" y="0px"
	 viewBox="0 0 68 49" style="enable-background:new 0 0 68 49;" xml:space="preserve">
<style type="text/css">
	.st0{fill:#FFFFFF;}
</style>
<g>
	<path class="st0" d="M67.7,14.2c-9-9-20.9-13.9-33.6-13.9C21.4,0.3,9.4,5.2,0.5,14.2c-0.5,0.5-0.5,1.3,0,1.8c0.5,0.5,1.3,0.5,1.8,0
		C10.7,7.4,22.1,2.7,34.1,2.7c12.1,0,23.4,4.7,31.9,13.2c0.2,0.2,0.6,0.4,0.9,0.4c0.3,0,0.6-0.1,0.9-0.4
		C68.2,15.4,68.2,14.7,67.7,14.2L67.7,14.2z M67.7,14.2"/>
	<path class="st0" d="M7.8,21.5c-0.5,0.5-0.5,1.3,0,1.8c0.2,0.2,0.6,0.4,0.9,0.4c0.3,0,0.6-0.1,0.9-0.4c13.6-13.6,35.6-13.6,49.2,0
		c0.5,0.5,1.3,0.5,1.8,0c0.5-0.5,0.5-1.3,0-1.8C45.9,6.9,22.3,6.9,7.8,21.5L7.8,21.5z M7.8,21.5"/>
	<path class="st0" d="M34.1,20.9c-7.2,0-14,2.8-19.1,7.9c-0.5,0.5-0.5,1.3,0,1.8c0.5,0.5,1.3,0.5,1.8,0c4.6-4.6,10.8-7.2,17.3-7.2
		s12.7,2.5,17.3,7.2c0.2,0.2,0.6,0.4,0.9,0.4c0.3,0,0.6-0.1,0.9-0.4c0.5-0.5,0.5-1.3,0-1.8C48.1,23.7,41.3,20.9,34.1,20.9L34.1,20.9
		z M34.1,20.9"/>
	<path class="st0" d="M34.1,32.5c-4.5,0-8.1,3.6-8.1,8.1c0,4.5,3.6,8.1,8.1,8.1c4.5,0,8.1-3.6,8.1-8.1
		C42.2,36.1,38.6,32.5,34.1,32.5L34.1,32.5z M34.1,46.3c-3.1,0-5.6-2.5-5.6-5.6c0-3.1,2.5-5.6,5.6-5.6c3.1,0,5.6,2.5,5.6,5.6
		C39.7,43.7,37.2,46.3,34.1,46.3L34.1,46.3z M34.1,46.3"/>
</g>
</svg>
