<?xml version="1.0" encoding="utf-8"?>
<!-- Generator: Adobe Illustrator 21.1.0, SVG Export Plug-In . SVG Version: 6.00 Build 0)  -->
<svg version="1.1" id="Layer_1" xmlns="http://www.w3.org/2000/svg" xmlns:xlink="http://www.w3.org/1999/xlink" x="0px" y="0px"
	 viewBox="0 0 38 38" style="enable-background:new 0 0 38 38;" xml:space="preserve">
<style type="text/css">
	.st0{fill:#F3BD11;}
</style>
<path class="st0" d="M0,19c0,10.5,8.5,19,19,19s19-8.5,19-19C38,8.5,29.5,0,19,0S0,8.5,0,19z M14.1,18.4l1.4-1.4l7.2-7.2
	c0.3-0.3,0.8-0.3,1.2,0c0.3,0.3,0.3,0.8,0,1.2L15.8,19l8.1,8.1c0.3,0.3,0.3,0.8,0,1.2c-0.3,0.3-0.8,0.3-1.2,0l-6.8-6.8l0,0l-1.8-1.8
	C13.8,19.3,13.8,18.7,14.1,18.4z"/>
</svg>
