<?xml version="1.0" encoding="utf-8"?>
<!-- Generator: Adobe Illustrator 21.1.0, SVG Export Plug-In . SVG Version: 6.00 Build 0)  -->
<svg version="1.1" id="Layer_1" xmlns="http://www.w3.org/2000/svg" xmlns:xlink="http://www.w3.org/1999/xlink" x="0px" y="0px"
	 viewBox="0 0 69 61" style="enable-background:new 0 0 69 61;" xml:space="preserve">
<style type="text/css">
	.st0{fill:#FFFFFF;}
</style>
<g>
	<path class="st0" d="M68.8,56.9l-1.6-4.2c-0.6-1.5-2-2.5-3.6-2.5h-0.4V20.9h2.1c1.2,0,2.2-0.8,2.5-2c0.3-1.2-0.3-2.3-1.3-2.9
		L35.6,0.6c-0.7-0.4-1.6-0.4-2.3,0L2.5,16.1c-1.1,0.5-1.6,1.7-1.3,2.9s1.3,2,2.5,2h2.1v29.3H5.3c-1.6,0-3,1-3.6,2.5l-1.6,4.2
		c-0.3,0.8-0.2,1.8,0.3,2.5c0.5,0.7,1.4,1.2,2.3,1.2h63.5c0.9,0,1.8-0.4,2.3-1.2C69,58.7,69.1,57.7,68.8,56.9z M36.7,18.6h-31H3.7
		c-0.1,0-0.2,0-0.3-0.2c-0.1-0.2,0.1-0.3,0.1-0.3L34.4,2.7c0,0,0.1,0,0.1,0c0,0,0.1,0,0.1,0l30.8,15.4c0.1,0,0.2,0.1,0.1,0.3
		c-0.1,0.2-0.2,0.2-0.3,0.2h-2.1h-1.1c-0.7,0-1.2,0.5-1.2,1.2v1.1h0v29.3h-6.6V29.3c0-3.1-2.5-5.6-5.6-5.6s-5.6,2.5-5.6,5.6v20.9h-3
		V29.3c0-3.1-2.5-5.6-5.6-5.6c-3.1,0-5.6,2.5-5.6,5.6v20.9h-3V29.3c0-3.1-2.5-5.6-5.6-5.6c-3.1,0-5.6,2.5-5.6,5.6v20.9H8V20.9h28.7
		c0.6,0,1.1-0.5,1.1-1.1S37.4,18.6,36.7,18.6z M23.6,50.2h-6.7V29.3c0-1.8,1.5-3.3,3.3-3.3c1.8,0,3.3,1.5,3.3,3.3V50.2z M37.8,50.2
		h-6.7V29.3c0-1.8,1.5-3.3,3.3-3.3c1.8,0,3.3,1.5,3.3,3.3V50.2z M52.1,50.2h-6.7V29.3c0-1.8,1.5-3.3,3.3-3.3c1.8,0,3.3,1.5,3.3,3.3
		V50.2z M66.6,58.1c-0.1,0.1-0.2,0.2-0.4,0.2H2.8c-0.2,0-0.4-0.1-0.4-0.2c-0.1-0.1-0.1-0.2-0.1-0.5l1.6-4.2c0.2-0.6,0.8-1,1.4-1h0.4
		v0h57.5v0h0.4c0.6,0,1.2,0.4,1.4,1l1.6,4.2C66.8,57.9,66.7,58.1,66.6,58.1z"/>
	<path class="st0" d="M43.2,20.9h2c0.6,0,1.1-0.5,1.1-1.1s-0.5-1.1-1.1-1.1h-2c-0.6,0-1.1,0.5-1.1,1.1S42.6,20.9,43.2,20.9z"/>
</g>
</svg>
