<?xml version="1.0" encoding="utf-8"?>
<!-- Generator: Adobe Illustrator 21.1.0, SVG Export Plug-In . SVG Version: 6.00 Build 0)  -->
<svg version="1.1" id="Layer_1" xmlns="http://www.w3.org/2000/svg" xmlns:xlink="http://www.w3.org/1999/xlink" x="0px" y="0px"
	 viewBox="0 0 41 72" style="enable-background:new 0 0 41 72;" xml:space="preserve">
<style type="text/css">
	.st0{fill:#FFFFFF;}
</style>
<g>
	<path class="st0" d="M35.6,0H5.4C2.5,0,0.1,2.4,0.1,5.3v61.4c0,2.9,2.4,5.3,5.3,5.3h30.2c2.9,0,5.3-2.4,5.3-5.3V5.3
		C40.9,2.4,38.5,0,35.6,0L35.6,0z M2.5,9.6h36v45.6h-36V9.6z M5.4,2.4h30.2c1.6,0,2.9,1.3,2.9,2.9v1.9h-36V5.3
		C2.5,3.7,3.8,2.4,5.4,2.4L5.4,2.4z M35.6,69.6H5.4c-1.6,0-2.9-1.3-2.9-2.9v-9.1h36v9.1C38.5,68.3,37.2,69.6,35.6,69.6L35.6,69.6z
		 M35.6,69.6"/>
	<path class="st0" d="M20.5,58.8c-2.6,0-4.8,2.2-4.8,4.8c0,2.6,2.2,4.8,4.8,4.8c2.6,0,4.8-2.2,4.8-4.8C25.3,61,23.1,58.8,20.5,58.8
		L20.5,58.8z M20.5,66c-1.3,0-2.4-1.1-2.4-2.4c0-1.3,1.1-2.4,2.4-2.4c1.3,0,2.4,1.1,2.4,2.4C22.9,64.9,21.8,66,20.5,66L20.5,66z
		 M20.5,66"/>
	<path class="st0" d="M18.1,6h4.8c0.7,0,1.2-0.5,1.2-1.2c0-0.7-0.5-1.2-1.2-1.2h-4.8c-0.7,0-1.2,0.5-1.2,1.2C16.9,5.5,17.4,6,18.1,6
		L18.1,6z M18.1,6"/>
</g>
</svg>
