<?xml version="1.0" encoding="utf-8"?>
<!-- Generator: Adobe Illustrator 21.1.0, SVG Export Plug-In . SVG Version: 6.00 Build 0)  -->
<svg version="1.1" id="Layer_1" xmlns="http://www.w3.org/2000/svg" xmlns:xlink="http://www.w3.org/1999/xlink" x="0px" y="0px"
	 viewBox="0 0 73 62" style="enable-background:new 0 0 73 62;" xml:space="preserve">
<style type="text/css">
	.st0{fill:#FFFFFF;}
</style>
<g>
	<g>
		<path class="st0" d="M71,62l-3.2-0.8l-3.4-1.5l-10.8-2.3l-3.7-1.5l-4.5,0l-2.9-0.7l-1.4-0.1l-0.8-0.2L39,54.3l-1.4-0.4l-1.3-0.6
			l-1.2-0.8l-0.8-1l-0.2-1.1l0.2-0.8l0.2-0.5l0-0.3l-1-0.5l-0.7-0.5L32.4,47L32,45.5l-0.1-0.3l-0.3-0.3l-0.4-0.2l-0.6-0.5l-0.6-1.2
			l0.5-1l-0.1-0.1L30,41.6l-0.7-0.1l-1.1-0.5v-1.1l-0.4,0.4l-5.6-1.8L20.4,39l-0.6-1.8l-0.5-3.3l-0.3-0.6l-0.4-0.6l-1.3-2.8L17,29.5
			l-0.4-0.2l-0.7-0.8l-0.5-0.8l-0.2-0.4l-0.1-0.1l-1.9-1.3l-0.3-0.4l-0.1-0.2l-0.5,0L11.8,25l-1.7-1.2l-0.4-1.1l0.3-0.6l-0.7-0.6
			L8.5,20L7,13.6l-0.5-1.2L5,11.4l-1.2-0.2l-1.2-0.7l-0.2-0.4l-0.7-1L1.1,6.6L0.2,5L2.6,4l2.6-0.5l2.2,0l1.5-0.4l1.5-0.8l2-1.5
			L14.8,0L17,1.1l4,5.1l0.6,1.3l0.3,1.4l-0.1,1.7l-0.5,2.3l0.1,0.5l0.4,0.3l1.3-0.3l1.4-1.3l2.1-0.7l2,2.8l0.6,1.4l0.3,0.5l0.4,0.2
			l2.5,0.2l1.2,0.6l1.6,1.7l0.3,0.2l0.3,0l0.3-0.1l0.5-0.3l0.5-0.2l4.1-2.7l1.5-0.6l6.8-1.6l1.5,0l1.7,0.7l1.4,1l0.7,1.2l0,1.4
			l-0.2,1.6l0.5,3.1L55,23.7l-1.8,2.9L53,27.5l0.2,0.4l2.7,0.7l1.3,1l1,1.1l1.1,0.9l3.7,1.8l1.2,1.2l0.5,0.7l0.2,0.8l-0.2,0.8
			l-0.4,0.6L63,39l-0.2,1.3l0.4,1.4l1,1.7l1.4,2l1.1,2.2l2.7,7.4l3.5,6.7L71,62z M68.3,59.6l1.8,0.4l-2.3-4.4l0-0.1l-2.7-7.4l-1-2
			l-1.3-1.9l-1.1-1.9l-0.6-2l0.4-2.1l1.6-2.1l0-0.1l0-0.2l-0.2-0.3L62,34.7l-3.7-1.8l-1.4-1.1l-1-1.1l-0.9-0.7l-3.1-0.8l-0.7-1.6
			l0.4-1.7l1.7-2.8l0.2-0.8l-0.4-3l0-0.2l0.2-1.6l0-0.9L53,16.2l-0.9-0.7l-1.2-0.5l-0.9,0l-6.5,1.6l-1.3,0.5l-4.1,2.7l-0.6,0.2
			l-0.6,0.3L36,20.6l-0.9-0.1L34.4,20l-1.6-1.7L32.1,18l-2.4-0.2l-1.1-0.4l-0.7-1L27.3,15l-1.2-1.7l-0.6,0.2L24,14.9l-2.5,0.6
			l-1.6-1l-0.3-1.5l0.5-2.5L20.2,9L20,8l-0.4-0.9L16,2.4l-1.3-0.6l-1.5,0.5l-1.8,1.4l-1.8,1l-2,0.5l-2.3,0L3.1,5.6L2.6,5.8l0.1,0.1
			l0.6,2.5l0.5,0.8l0.6,0.4l0.9,0.2l2.4,0.1l-0.5,1.1l0.6,0.4L8.6,13l1.5,6.4l0.5,1.1l1.5,1.3l-0.5,1l0.9,0.6l0.6,0l0.8,0.2l0.4,0.6
			l0.1,0.3l0,0l1.9,1.3l0.4,0.5l0.2,0.5l0.3,0.6l0.4,0.5l0.5,0.3l0.6,0.9l1.3,2.8l0.4,0.6l0.4,0.9l0.6,3.4l0.1,0.2l0.8-0.3l5.2,1.7
			l0.3-0.2l0.7-0.3l1.2,0.1l0.4,1.1l-0.2,0.7l0.7,0.1l1,0.7l0.5,1.3l-0.4,0.9l0.1,0.2l0.3,0.2l0.5,0.3l0.7,0.7l0.3,0.8l0.4,1.4
			l0.1,0.3l0.2,0.2l1.4,0.6l0.5,0.9l-0.2,1l-0.2,0.6l-0.1,0.4l0,0.3l0.4,0.4l0.9,0.6l1.1,0.5l1.5,0.4l1,0.6l0.4,0.1l1.4,0.1l2.9,0.7
			l4.7,0l3.9,1.5l10.9,2.3L68.3,59.6z"/>
	</g>
	<ellipse transform="matrix(0.9697 -0.2444 0.2444 0.9697 -0.1076 1.7411)" class="st0" cx="7" cy="1.3" rx="0.9" ry="0.9"/>
</g>
</svg>
