<?xml version="1.0" encoding="utf-8"?>
<!-- Generator: Adobe Illustrator 21.1.0, SVG Export Plug-In . SVG Version: 6.00 Build 0)  -->
<svg version="1.1" id="Layer_1" xmlns="http://www.w3.org/2000/svg" xmlns:xlink="http://www.w3.org/1999/xlink" x="0px" y="0px"
	 viewBox="0 0 38 38" style="enable-background:new 0 0 38 38;" xml:space="preserve">
<style type="text/css">
	.st0{fill:#DFDFDF;}
</style>
<path class="st0" d="M19,0C8.5,0,0,8.5,0,19c0,10.5,8.5,19,19,19s19-8.5,19-19C38,8.5,29.5,0,19,0z M23.9,19.6l-1.8,1.8l0,0
	l-6.8,6.8c-0.3,0.3-0.8,0.3-1.2,0c-0.3-0.3-0.3-0.8,0-1.2l8.1-8.1l-8.1-8.1c-0.3-0.3-0.3-0.8,0-1.2s0.8-0.3,1.2,0l7.2,7.2l1.4,1.4
	C24.2,18.7,24.2,19.3,23.9,19.6z"/>
</svg>
