<?xml version="1.0" encoding="utf-8"?>
<!-- Generator: Adobe Illustrator 21.1.0, SVG Export Plug-In . SVG Version: 6.00 Build 0)  -->
<svg version="1.1" id="Layer_1" xmlns="http://www.w3.org/2000/svg" xmlns:xlink="http://www.w3.org/1999/xlink" x="0px" y="0px"
	 viewBox="0 0 62 62" style="enable-background:new 0 0 62 62;" xml:space="preserve">
<style type="text/css">
	.st0{fill:#3B3B3B;}
</style>
<path class="st0" d="M62,51c-0.2-1.5-1.1-2.8-2.4-3.5l-15.3-8.8c-1.9-1.1-4.2-0.8-5.8,0.8l-3,3c-0.8,0.8-2.1,0.9-2.9,0.2
	c-2.4-1.9-4.7-4-7-6.3c-2.2-2.2-4.3-4.6-6.3-7c-0.7-0.9-0.6-2.1,0.2-2.9l3-3c1.5-1.5,1.8-3.9,0.8-5.8L14.5,2.4
	c-0.7-1.3-2-2.2-3.5-2.4C9.5-0.2,8,0.3,7,1.4L2.4,5.9c-3.2,3.2-3.2,9-0.1,16.3c3,7.1,8.5,14.9,15.5,21.9
	c7.1,7.1,14.9,12.6,21.9,15.5c3.6,1.5,6.9,2.3,9.6,2.3c2.8,0,5.1-0.8,6.7-2.4l4.5-4.5C61.7,54,62.2,52.5,62,51L62,51z M43.3,40.4
	l15.3,8.8c0.8,0.4,1.3,1.2,1.4,2c0.1,0.7-0.1,1.4-0.5,2L39.1,41.7l0.8-0.8C40.8,40,42.2,39.8,43.3,40.4L43.3,40.4z M10.7,2
	c0.9,0.1,1.6,0.6,2,1.4l8.8,15.3c0.6,1.1,0.4,2.5-0.4,3.4l-0.8,0.8L8.7,2.6C9.2,2.2,9.7,2,10.3,2C10.5,2,10.6,2,10.7,2L10.7,2z
	 M54.6,58.2c-2.5,2.5-7.7,2.4-14.1-0.3c-6.8-2.9-14.4-8.2-21.3-15.1C12.3,35.9,7,28.3,4.1,21.5C1.4,15,1.3,9.9,3.8,7.4L7.2,4
	l11.7,20.3l-0.8,0.8c-1.5,1.5-1.7,3.9-0.3,5.6c2,2.4,4.1,4.8,6.4,7.1c2.3,2.3,4.7,4.4,7.1,6.4c1.7,1.4,4.1,1.2,5.6-0.3l0.7-0.7
	L58,54.8L54.6,58.2z M54.6,58.2"/>
</svg>
