<?xml version="1.0" encoding="utf-8"?>
<!-- Generator: Adobe Illustrator 21.1.0, SVG Export Plug-In . SVG Version: 6.00 Build 0)  -->
<svg version="1.1" id="Layer_1" xmlns="http://www.w3.org/2000/svg" xmlns:xlink="http://www.w3.org/1999/xlink" x="0px" y="0px"
	 viewBox="0 0 65 65" style="enable-background:new 0 0 65 65;" xml:space="preserve">
<style type="text/css">
	.st0{fill:#FFFFFF;}
</style>
<g>
	<path class="st0" d="M64.7,19.9L45.1,0.4c-0.2-0.2-0.5-0.3-0.7-0.3c-0.3,0-0.5,0.1-0.7,0.3L1.9,42.1c-2.6,2.6-2.6,6.7,0,9.3
		l11.7,11.7c1.2,1.2,2.9,1.9,4.6,1.9c1.8,0,3.4-0.7,4.6-1.9l41.8-41.8C65.1,21,65.1,20.3,64.7,19.9L64.7,19.9z M21.5,61.7
		c-0.8,0.8-2,1.3-3.2,1.3c-1.2,0-2.3-0.5-3.2-1.3L3.4,49.9c-1.8-1.8-1.8-4.6,0-6.4l41-41l18.1,18.1L21.5,61.7z M21.5,61.7"/>
	<path class="st0" d="M8,43.4c-0.4-0.4-1.1-0.4-1.5,0c-0.4,0.4-0.4,1.1,0,1.5l13.7,13.7c0.2,0.2,0.5,0.3,0.7,0.3
		c0.3,0,0.5-0.1,0.7-0.3c0.4-0.4,0.4-1.1,0-1.5L8,43.4z M8,43.4"/>
	<path class="st0" d="M13.4,43.9c0.2,0.2,0.5,0.3,0.7,0.3c0.3,0,0.5-0.1,0.7-0.3c0.4-0.4,0.4-1.1,0-1.5l-2-2c-0.4-0.4-1.1-0.4-1.5,0
		c-0.4,0.4-0.4,1.1,0,1.5L13.4,43.9z M13.4,43.9"/>
	<path class="st0" d="M17.8,45.3c-0.4-0.4-1.1-0.4-1.5,0c-0.4,0.4-0.4,1.1,0,1.5l2,2c0.2,0.2,0.5,0.3,0.7,0.3c0.3,0,0.5-0.1,0.7-0.3
		c0.4-0.4,0.4-1.1,0-1.5L17.8,45.3z M17.8,45.3"/>
	<path class="st0" d="M22.6,50.2c-0.4-0.4-1.1-0.4-1.5,0c-0.4,0.4-0.4,1.1,0,1.5l2,2c0.2,0.2,0.5,0.3,0.7,0.3c0.3,0,0.5-0.1,0.7-0.3
		c0.4-0.4,0.4-1.1,0-1.5L22.6,50.2z M22.6,50.2"/>
	<path class="st0" d="M17.3,40c0.2,0.2,0.5,0.3,0.7,0.3c0.3,0,0.5-0.1,0.7-0.3c0.4-0.4,0.4-1.1,0-1.5l-2-2c-0.4-0.4-1.1-0.4-1.5,0
		c-0.4,0.4-0.4,1.1,0,1.5L17.3,40z M17.3,40"/>
	<path class="st0" d="M20.2,41.4c-0.4,0.4-0.4,1.1,0,1.5l2,2c0.2,0.2,0.5,0.3,0.7,0.3c0.3,0,0.5-0.1,0.7-0.3c0.4-0.4,0.4-1.1,0-1.5
		l-2-2C21.3,41,20.6,41,20.2,41.4L20.2,41.4z M20.2,41.4"/>
	<path class="st0" d="M26.6,46.3c-0.4-0.4-1.1-0.4-1.5,0c-0.4,0.4-0.4,1.1,0,1.5l2,2c0.2,0.2,0.5,0.3,0.7,0.3c0.3,0,0.5-0.1,0.7-0.3
		c0.4-0.4,0.4-1.1,0-1.5L26.6,46.3z M26.6,46.3"/>
	<path class="st0" d="M32.1,28.9c-1.2,1.2-1.2,3.2,0,4.4c0.6,0.6,1.4,0.9,2.2,0.9c0.8,0,1.6-0.3,2.2-0.9c1.2-1.2,1.2-3.2,0-4.4
		c-0.6-0.6-1.4-0.9-2.2-0.9C33.5,28,32.7,28.3,32.1,28.9L32.1,28.9z M35,31.8c-0.2,0.2-0.5,0.3-0.7,0.3c-0.3,0-0.5-0.1-0.7-0.3
		c-0.4-0.4-0.4-1.1,0-1.5c0.2-0.2,0.5-0.3,0.7-0.3c0.3,0,0.5,0.1,0.7,0.3C35.5,30.8,35.5,31.4,35,31.8L35,31.8z M35,31.8"/>
	<path class="st0" d="M21.2,36c0.2,0.2,0.5,0.3,0.7,0.3s0.5-0.1,0.7-0.3c0.4-0.4,0.4-1.1,0-1.5l-2-2c-0.4-0.4-1.1-0.4-1.5,0
		c-0.4,0.4-0.4,1.1,0,1.5L21.2,36z M21.2,36"/>
	<path class="st0" d="M26.1,40.9c0.2,0.2,0.5,0.3,0.7,0.3c0.3,0,0.5-0.1,0.7-0.3c0.4-0.4,0.4-1.1,0-1.5l-2-2c-0.4-0.4-1.1-0.4-1.5,0
		c-0.4,0.4-0.4,1.1,0,1.5L26.1,40.9z M26.1,40.9"/>
	<path class="st0" d="M30.5,42.4c-0.4-0.4-1.1-0.4-1.5,0c-0.4,0.4-0.4,1.1,0,1.5l2,2c0.2,0.2,0.5,0.3,0.7,0.3c0.3,0,0.5-0.1,0.7-0.3
		c0.4-0.4,0.4-1.1,0-1.5L30.5,42.4z M30.5,42.4"/>
	<path class="st0" d="M37.8,19.4c0.2,0.2,0.5,0.3,0.7,0.3c0.3,0,0.5-0.1,0.7-0.3c0.4-0.4,0.4-1.1,0-1.5l-2-2c-0.4-0.4-1.1-0.4-1.5,0
		c-0.4,0.4-0.4,1.1,0,1.5L37.8,19.4z M37.8,19.4"/>
	<path class="st0" d="M42.2,20.9c-0.4-0.4-1.1-0.4-1.5,0c-0.4,0.4-0.4,1.1,0,1.5l2,2c0.2,0.2,0.5,0.3,0.7,0.3c0.3,0,0.5-0.1,0.7-0.3
		c0.4-0.4,0.4-1.1,0-1.5L42.2,20.9z M42.2,20.9"/>
	<path class="st0" d="M45.6,25.8c-0.4,0.4-0.4,1.1,0,1.5l2,2c0.2,0.2,0.5,0.3,0.7,0.3s0.5-0.1,0.7-0.3c0.4-0.4,0.4-1.1,0-1.5l-2-2
		C46.7,25.4,46,25.4,45.6,25.8L45.6,25.8z M45.6,25.8"/>
	<path class="st0" d="M41.7,15.5c0.2,0.2,0.5,0.3,0.7,0.3c0.3,0,0.5-0.1,0.7-0.3c0.4-0.4,0.4-1.1,0-1.5l-2-2c-0.4-0.4-1.1-0.4-1.5,0
		c-0.4,0.4-0.4,1.1,0,1.5L41.7,15.5z M41.7,15.5"/>
	<path class="st0" d="M44.6,17c-0.4,0.4-0.4,1.1,0,1.5l2,2c0.2,0.2,0.5,0.3,0.7,0.3c0.3,0,0.5-0.1,0.7-0.3c0.4-0.4,0.4-1.1,0-1.5
		l-2-2C45.7,16.6,45.1,16.6,44.6,17L44.6,17z M44.6,17"/>
	<path class="st0" d="M51.5,25.3c0.2,0.2,0.5,0.3,0.7,0.3c0.3,0,0.5-0.1,0.7-0.3c0.4-0.4,0.4-1.1,0-1.5l-2-2c-0.4-0.4-1.1-0.4-1.5,0
		c-0.4,0.4-0.4,1.1,0,1.5L51.5,25.3z M51.5,25.3"/>
	<path class="st0" d="M43.7,9.6l2,2c0.2,0.2,0.5,0.3,0.7,0.3c0.3,0,0.5-0.1,0.7-0.3c0.4-0.4,0.4-1.1,0-1.5l-2-2
		c-0.4-0.4-1.1-0.4-1.5,0C43.3,8.6,43.3,9.2,43.7,9.6L43.7,9.6z M43.7,9.6"/>
	<path class="st0" d="M55.4,21.4c0.2,0.2,0.5,0.3,0.7,0.3c0.3,0,0.5-0.1,0.7-0.3c0.4-0.4,0.4-1.1,0-1.5l-2-2c-0.4-0.4-1.1-0.4-1.5,0
		c-0.4,0.4-0.4,1.1,0,1.5L55.4,21.4z M55.4,21.4"/>
	<path class="st0" d="M39.2,29.4c0.2,0.5,0.8,0.8,1.3,0.6c0.5-0.2,0.8-0.8,0.6-1.3c-0.4-1-0.9-1.9-1.7-2.7c-1.4-1.4-3.2-2.1-5.1-2.1
		c-1.9,0-3.8,0.8-5.1,2.1c-2.8,2.8-2.8,7.4,0,10.3c1.4,1.4,3.2,2.1,5.1,2.1c1.9,0,3.8-0.8,5.1-2.1c0.8-0.8,1.4-1.7,1.7-2.7
		c0.2-0.5-0.1-1.1-0.6-1.3c-0.5-0.2-1.1,0.1-1.3,0.6c-0.3,0.7-0.7,1.4-1.2,1.9c-1,1-2.3,1.5-3.7,1.5c-1.4,0-2.7-0.5-3.7-1.5
		c-2-2-2-5.3,0-7.3c1-1,2.3-1.5,3.7-1.5c1.4,0,2.7,0.5,3.7,1.5C38.5,28,38.9,28.6,39.2,29.4L39.2,29.4z M39.2,29.4"/>
</g>
</svg>
