<?xml version="1.0" encoding="utf-8"?>
<!-- Generator: Adobe Illustrator 21.1.0, SVG Export Plug-In . SVG Version: 6.00 Build 0)  -->
<svg version="1.1" id="Layer_1" xmlns="http://www.w3.org/2000/svg" xmlns:xlink="http://www.w3.org/1999/xlink" x="0px" y="0px"
	 viewBox="0 0 49 72" style="enable-background:new 0 0 49 72;" xml:space="preserve">
<style type="text/css">
	.st0{fill:#FFFFFF;}
</style>
<path class="st0" d="M48.4,21.8C47.2,10.4,38.1,1.3,26.8,0.1c-0.7,0-1.4-0.1-2.3-0.1c-0.8,0-1.6,0.1-2.3,0.1
	C10.9,1.4,1.8,10.6,0.6,21.8c-0.8,7.7,1.9,15.2,7.4,20.5c3,2.9,4.9,6.2,5.6,9.5V66c0,0.7,0.5,1.2,1.2,1.2h1.8l2.2,2.9
	c1,1.2,2.3,1.9,3.8,1.9h3.6c1.6,0,3-0.7,3.8-1.9l2.2-2.9h1.8c0.7,0,1.2-0.5,1.2-1.2V51.8c0.6-3.2,2.6-6.6,5.6-9.5
	C46.5,37,49.2,29.5,48.4,21.8L48.4,21.8z M19.7,30h-2.4c-1.3,0-2.4-1.1-2.4-2.4c0-1.3,1.1-2.4,2.4-2.4c1.3,0,2.4,1.1,2.4,2.4V30z
	 M26.9,50.4h-4.8v-18h4.8V50.4z M32.9,52.8v2.4h-3.6c-0.7,0-1.2,0.5-1.2,1.2c0,0.7,0.5,1.2,1.2,1.2h3.6V60h-7.2
	c-0.7,0-1.2,0.5-1.2,1.2c0,0.7,0.5,1.2,1.2,1.2h7.2v2.4H16.1v-2.4h3.6c0.7,0,1.2-0.5,1.2-1.2c0-0.7-0.5-1.2-1.2-1.2h-3.6v-2.4h7.2
	c0.7,0,1.2-0.5,1.2-1.2c0-0.7-0.5-1.2-1.2-1.2h-7.2v-2.4H32.9z M28.2,68.6c-0.5,0.6-1.2,1-1.9,1h-3.6c-0.7,0-1.4-0.4-1.9-1l-1.1-1.4
	h9.6L28.2,68.6z M39.3,40.6c-3,3-5.2,6.4-6.1,9.8h-3.8v-18h2.4c2.6,0,4.8-2.2,4.8-4.8c0-2.6-2.2-4.8-4.8-4.8c-2.6,0-4.8,2.2-4.8,4.8
	V30h-4.8v-2.4c0-2.6-2.2-4.8-4.8-4.8c-2.6,0-4.8,2.2-4.8,4.8c0,2.6,2.2,4.8,4.8,4.8h2.4v18h-3.8c-1-3.5-3.1-6.8-6.1-9.8
	C4.7,35.8,2.3,29,3,22.1C4.2,11.9,12.4,3.7,22.6,2.5c0.6,0,1.2-0.1,1.9-0.1c0.7,0,1.3,0.1,1.9,0.1C36.6,3.7,44.9,11.9,46,22.1
	C46.7,29,44.3,35.8,39.3,40.6L39.3,40.6z M29.3,30v-2.4c0-1.3,1.1-2.4,2.4-2.4c1.3,0,2.4,1.1,2.4,2.4c0,1.3-1.1,2.4-2.4,2.4H29.3z
	 M29.3,30"/>
</svg>
