<?xml version="1.0" encoding="utf-8"?>
<!-- Generator: Adobe Illustrator 21.1.0, SVG Export Plug-In . SVG Version: 6.00 Build 0)  -->
<svg version="1.1" id="Layer_1" xmlns="http://www.w3.org/2000/svg" xmlns:xlink="http://www.w3.org/1999/xlink" x="0px" y="0px"
	 viewBox="0 0 56 56" style="enable-background:new 0 0 56 56;" xml:space="preserve">
<style type="text/css">
	.st0{fill:#FFFFFF;}
</style>
<g>
	<path class="st0" d="M38.8,51.9c-0.3-0.5-0.9-0.7-1.4-0.5c-3,1.4-6.1,2.2-9.5,2.2c-5,0-9.9-1.7-13.7-4.9c1.4-1.5,2.3-3.5,2.3-5.6
		c0-4.5-3.7-8.2-8.2-8.2c-4.5,0-8.2,3.7-8.2,8.2c0,4.5,3.7,8.2,8.2,8.2c1.6,0,3.1-0.5,4.3-1.2c4.3,3.6,9.7,5.6,15.4,5.6
		c3.6,0,7.1-0.8,10.4-2.4C38.8,53,39,52.4,38.8,51.9L38.8,51.9z M2.1,43c0-3.4,2.8-6.2,6.2-6.2c3.4,0,6.2,2.8,6.2,6.2
		c0,3.4-2.8,6.2-6.2,6.2C4.8,49.2,2.1,46.4,2.1,43L2.1,43z M2.1,43"/>
	<path class="st0" d="M4.1,30.7c0,0.6,0.4,1.1,1,1.1h0c0.6,0,1-0.4,1-1c0.3-7.4,4.2-14.1,10.5-18c1-0.6,2-1.1,3.1-1.6
		c1.1,3.2,4.2,5.6,7.8,5.6c4.5,0,8.2-3.7,8.2-8.2c0-4.5-3.7-8.2-8.2-8.2c-4.5,0-8.2,3.7-8.2,8.2c0,0.2,0,0.4,0,0.6
		c-1.3,0.5-2.6,1.1-3.7,1.8C8.7,15.2,4.4,22.6,4.1,30.7L4.1,30.7z M27.6,2.4c3.4,0,6.2,2.8,6.2,6.2c0,3.4-2.8,6.1-6.2,6.1
		c-3.4,0-6.2-2.8-6.2-6.2C21.5,5.2,24.2,2.4,27.6,2.4L27.6,2.4z M27.6,2.4"/>
	<path class="st0" d="M47.8,34.8c-4.5,0-8.2,3.7-8.2,8.2c0,4.5,3.7,8.2,8.2,8.2c4.5,0,8.2-3.7,8.2-8.2c0-3.2-1.8-6-4.5-7.3
		c0.2-1.3,0.4-2.7,0.4-4.1c0-8.1-4.1-15.6-10.9-20c-0.5-0.3-1.1-0.2-1.4,0.3c-0.3,0.5-0.2,1.1,0.3,1.4c6.2,4,9.9,10.9,9.9,18.3
		c0,1.1-0.1,2.3-0.3,3.4C49,34.9,48.4,34.8,47.8,34.8L47.8,34.8z M53.9,43c0,3.4-2.8,6.2-6.2,6.2c-3.4,0-6.2-2.8-6.2-6.2
		c0-3.4,2.8-6.2,6.2-6.2C51.2,36.9,53.9,39.7,53.9,43L53.9,43z M53.9,43"/>
</g>
</svg>
