<?xml version="1.0" encoding="utf-8"?>
<!-- Generator: Adobe Illustrator 21.1.0, SVG Export Plug-In . SVG Version: 6.00 Build 0)  -->
<svg version="1.1" id="Layer_1" xmlns="http://www.w3.org/2000/svg" xmlns:xlink="http://www.w3.org/1999/xlink" x="0px" y="0px"
	 viewBox="0 0 86 50" style="enable-background:new 0 0 86 50;" xml:space="preserve">
<style type="text/css">
	.st0{fill:#FFFFFF;}
	.st1{fill-rule:evenodd;clip-rule:evenodd;fill:#FFFFFF;}
</style>
<g>
	<path class="st0" d="M79.6,44.6c0,0.3-0.1,0.5-0.1,0.7c0,0.2,0,0.3-0.1,0.5c-0.1,0.5-0.3,0.9-0.5,1.3c-0.3,0.3-0.7,0.6-1.1,0.7
		c-0.2,0.1-0.4,0.1-0.6,0.1c-0.3,0-0.5,0-0.8,0c-0.3,0-0.5,0-0.8,0h-4.3L71.1,50h4.3c0.6,0,1.2,0,1.8,0c0.6,0,1.2-0.1,1.7-0.3
		c0.5-0.1,0.9-0.4,1.2-0.7c0.4-0.3,0.7-0.7,1-1.1c0.3-0.4,0.5-1,0.6-1.6c0.1-0.3,0.1-0.7,0.2-1.2c0-0.5,0.1-1.1,0.2-1.7
		c0.1-0.7,0.1-1.4,0.2-2.2l1.2-14.1h-2.3l-0.7,8.5c0,0.5-0.1,1-0.1,1.5c0,0.5-0.1,0.9-0.1,1.4c0,0.4-0.1,0.8-0.1,1.1
		c0,0.3-0.1,0.5-0.1,0.7c-0.1,0.5-0.2,0.9-0.5,1.3c-0.3,0.3-0.7,0.6-1.2,0.7c-0.3,0.1-0.6,0.1-1,0.1c-0.4,0-0.9,0-1.4,0
		c-0.5,0-1,0-1.4,0c-0.4,0-0.8-0.1-1-0.1c-0.5-0.1-0.8-0.4-1-0.7c-0.2-0.3-0.3-0.7-0.3-1.3c0-0.2,0-0.5,0.1-0.9
		c0-0.4,0.1-0.9,0.1-1.5c0.1-0.6,0.1-1.2,0.2-1.9l0.8-8.9h-2.3l-0.7,8.5c-0.1,1.2-0.2,2.2-0.3,3c-0.1,0.8-0.1,1.6-0.1,2.2
		c0,0.6,0.1,1.1,0.3,1.6c0.2,0.4,0.5,0.8,0.8,1.1c0.3,0.3,0.7,0.5,1.2,0.7c0.5,0.2,1,0.3,1.6,0.3c0.6,0,1.3,0,2,0H79.6z M57.2,27.2
		L57,29.3h4.3c0.5,0,1,0,1.5,0c0.4,0,0.8,0.1,1,0.1c0.3,0.1,0.5,0.2,0.7,0.4c0.2,0.2,0.3,0.4,0.4,0.6c0.1,0.2,0.1,0.4,0.1,0.6
		c0,0.3,0,0.5,0,0.7c0,0.2,0,0.4-0.1,0.6c0,0.4-0.1,0.7-0.3,0.9c-0.2,0.2-0.4,0.3-0.6,0.4c-0.2,0.1-0.5,0.1-0.8,0.1h-2.4
		c-0.8,0-1.5,0-2.1,0c-0.6,0-1.2,0.1-1.7,0.3c-0.5,0.1-0.9,0.4-1.2,0.7c-0.4,0.3-0.7,0.7-1,1.1c-0.3,0.4-0.5,1-0.6,1.6
		c-0.1,0.4-0.1,0.7-0.1,0.9c0,0.3,0,0.5-0.1,0.7c0,0.2,0,0.4-0.1,0.7c0,0.3,0,0.6,0,1c0,0.6,0.1,1.1,0.3,1.6
		c0.2,0.5,0.5,0.8,0.8,1.1c0.3,0.3,0.7,0.5,1.1,0.7c0.5,0.2,1,0.3,1.6,0.3c0.6,0,1.2,0,2,0c0.8,0,1.5,0,2.1,0c0.6,0,1.2-0.1,1.7-0.3
		c0.7-0.2,1.3-0.6,1.8-1.1c0.5-0.5,0.8-1.3,1-2.2c0.1-0.3,0.1-0.7,0.2-1c0-0.4,0.1-0.8,0.1-1.4l0.4-5.2c0-0.5,0.1-1,0.1-1.4
		c0-0.4,0-0.8,0-1.1c0-0.9-0.2-1.6-0.6-2.1c-0.4-0.5-0.9-0.9-1.6-1.2c-0.4-0.1-0.8-0.2-1.2-0.2c-0.4-0.1-0.9-0.1-1.3-0.1
		c-0.5,0-0.9,0-1.3,0H57.2z M64.6,35.9l-0.2,2.2c0,0.4-0.1,0.7-0.1,1c0,0.3-0.1,0.5-0.1,0.7c0,0.2-0.1,0.4-0.1,0.7
		c-0.1,0.4-0.3,0.8-0.5,1.1c-0.3,0.3-0.6,0.6-1.1,0.7c-0.3,0.1-0.6,0.1-1.1,0.1c-0.4,0-0.9,0-1.5,0c-0.4,0-0.7,0-1,0
		c-0.3,0-0.7,0-1-0.1c-0.5-0.1-1-0.3-1.2-0.7c-0.3-0.4-0.4-0.8-0.4-1.4c0-0.2,0-0.4,0-0.6c0-0.2,0-0.4,0-0.6c0-0.2,0-0.4,0.1-0.6
		c0-0.2,0-0.4,0.1-0.5c0.1-0.5,0.3-0.9,0.6-1.3c0.3-0.3,0.7-0.6,1.1-0.7c0.3-0.1,0.6-0.1,1-0.1c0.4,0,0.9,0,1.4,0H64.6z M45.1,42.5
		c-0.5,0-1,0-1.4,0c-0.4,0-0.8-0.1-1-0.1c-0.5-0.1-0.8-0.4-1-0.7c-0.2-0.3-0.3-0.8-0.3-1.3c0-0.1,0-0.4,0-0.7c0-0.3,0-0.6,0.1-1
		c0-0.4,0.1-0.8,0.1-1.3c0-0.5,0.1-0.9,0.1-1.4c0-0.5,0.1-1,0.1-1.4c0-0.5,0.1-0.9,0.1-1.3c0-0.4,0.1-0.8,0.1-1.1
		c0-0.3,0.1-0.5,0.1-0.7c0.1-0.5,0.3-0.9,0.5-1.3c0.3-0.3,0.7-0.6,1.1-0.7c0.3-0.1,0.6-0.1,1-0.1c0.4,0,0.9,0,1.4,0c0.5,0,1,0,1.4,0
		c0.4,0,0.7,0.1,1,0.1c0.5,0.1,0.8,0.4,1,0.7c0.2,0.3,0.3,0.8,0.3,1.3c0,0.5,0,1.1-0.1,1.9c-0.1,0.7-0.1,1.6-0.2,2.5
		c-0.1,0.6-0.1,1.3-0.2,1.9c-0.1,0.6-0.1,1.1-0.1,1.6c0,0.4-0.1,0.8-0.1,1c-0.1,0.5-0.3,0.9-0.5,1.3c-0.3,0.3-0.7,0.6-1.2,0.7
		c-0.3,0.1-0.6,0.1-1,0.1C46.1,42.5,45.6,42.5,45.1,42.5z M38.1,50h2.3l0.5-5.4h4c0.8,0,1.4,0,2.1,0c0.6,0,1.2-0.1,1.7-0.3
		c0.5-0.1,0.9-0.4,1.2-0.7c0.4-0.3,0.7-0.7,1-1.1c0.3-0.4,0.5-1,0.6-1.6c0.1-0.4,0.1-1,0.2-1.8c0.1-0.8,0.2-1.9,0.3-3.2
		c0.1-0.8,0.1-1.5,0.2-2.1c0.1-0.6,0.1-1.2,0.1-1.6c0-0.5,0-0.9,0-1.3c0-0.6-0.1-1.1-0.3-1.6c-0.2-0.4-0.5-0.8-0.8-1.1
		c-0.3-0.3-0.7-0.5-1.1-0.7c-0.5-0.2-1-0.3-1.6-0.3c-0.6,0-1.3,0-2,0c-0.8,0-1.4,0-2.1,0c-0.6,0-1.2,0.1-1.7,0.3
		c-0.7,0.2-1.3,0.6-1.8,1.1c-0.5,0.5-0.8,1.3-1,2.2c-0.1,0.4-0.2,1-0.2,1.8c-0.1,0.8-0.2,1.8-0.3,3L38.1,50z M83.3,22.5L84,14
		c0.1-1.2,0.2-2.2,0.3-3c0.1-0.9,0.1-1.6,0.1-2.2c0-0.6-0.1-1.1-0.3-1.6c-0.2-0.4-0.5-0.8-0.8-1.1c-0.3-0.3-0.7-0.5-1.2-0.7
		c-0.5-0.2-1-0.3-1.6-0.3c-0.6,0-1.3,0-2,0c-0.8,0-1.4,0-2.1,0c-0.6,0-1.2,0.1-1.7,0.3c-0.4,0.1-0.9,0.4-1.2,0.7
		c-0.4,0.3-0.7,0.7-1,1.1c-0.3,0.4-0.5,1-0.6,1.6c-0.1,0.3-0.1,0.7-0.2,1.2c-0.1,0.5-0.1,1.1-0.2,1.8c-0.1,0.7-0.1,1.4-0.2,2.2
		l-0.7,8.5H73l0.7-8.5c0-0.5,0.1-1,0.1-1.5c0-0.5,0.1-0.9,0.1-1.4c0-0.4,0.1-0.8,0.1-1.1c0-0.3,0.1-0.5,0.1-0.7
		c0.1-0.5,0.2-0.9,0.5-1.3c0.3-0.3,0.7-0.6,1.2-0.7c0.3-0.1,0.6-0.1,1-0.1c0.4,0,0.9,0,1.4,0c0.5,0,1,0,1.4,0c0.4,0,0.8,0.1,1,0.1
		c0.5,0.1,0.8,0.4,1,0.7c0.2,0.3,0.3,0.7,0.3,1.3c0,0.2,0,0.5-0.1,0.9c0,0.4-0.1,0.9-0.1,1.5c-0.1,0.6-0.1,1.2-0.2,1.9L81,22.5H83.3
		z M65.8,22.5l0.2-2.1h-4.1c-0.5,0-1,0-1.5,0c-0.4,0-0.8-0.1-1-0.1c-0.3-0.1-0.6-0.2-0.7-0.4c-0.2-0.2-0.3-0.4-0.4-0.6
		c-0.1-0.2-0.1-0.4-0.1-0.7c0-0.2,0-0.4,0-0.7c0-0.2,0-0.5,0.1-0.7l0.1-1.3h4c0.8,0,1.5,0,2.1,0c0.6,0,1.2-0.1,1.7-0.3
		c0.5-0.1,0.9-0.4,1.3-0.7c0.4-0.3,0.7-0.7,1-1.1c0.3-0.4,0.4-1,0.5-1.6c0-0.2,0.1-0.4,0.1-0.6c0-0.2,0-0.4,0.1-0.6
		c0-0.2,0-0.4,0.1-0.6c0-0.2,0-0.4,0-0.7c0-0.3,0-0.6,0-0.9c0-0.6-0.1-1.1-0.3-1.5c-0.2-0.4-0.5-0.8-0.8-1.1
		c-0.3-0.3-0.7-0.5-1.1-0.7c-0.5-0.2-1-0.3-1.6-0.3c-0.6,0-1.2,0-2,0c-0.8,0-1.5,0-2.1,0c-0.6,0-1.2,0.1-1.7,0.3
		c-0.7,0.2-1.3,0.6-1.8,1.1c-0.5,0.5-0.8,1.3-1,2.2c-0.1,0.3-0.1,0.7-0.2,1c0,0.4-0.1,0.8-0.1,1.4l-0.4,5.2c0,0.5-0.1,1-0.1,1.4
		c0,0.4,0,0.8,0,1.1c0,0.9,0.2,1.6,0.6,2.1c0.4,0.6,0.9,0.9,1.6,1.2c0.4,0.1,0.8,0.2,1.2,0.2c0.4,0.1,0.9,0.1,1.3,0.1
		c0.5,0,0.9,0,1.3,0H65.8z M58.5,13.8l0.2-2.2c0-0.4,0.1-0.7,0.1-1c0-0.3,0.1-0.5,0.1-0.7c0-0.2,0.1-0.4,0.1-0.7
		C59,8.7,59.2,8.3,59.5,8c0.3-0.3,0.6-0.5,1.1-0.7c0.3-0.1,0.6-0.1,1.1-0.1c0.4,0,0.9,0,1.5,0c0.4,0,0.7,0,1,0c0.3,0,0.7,0,1,0.1
		c0.5,0.1,0.9,0.3,1.2,0.6c0.3,0.3,0.4,0.8,0.4,1.3c0,0.2,0,0.4,0,0.6c0,0.2,0,0.4,0,0.6c0,0.2,0,0.4-0.1,0.6c0,0.2,0,0.4-0.1,0.6
		c-0.1,0.5-0.3,0.9-0.5,1.3c-0.3,0.3-0.7,0.6-1.2,0.7c-0.3,0.1-0.6,0.1-1,0.1c-0.4,0-0.9,0-1.4,0H58.5z M47.1,7.2c0.5,0,1,0,1.4,0
		c0.4,0,0.8,0.1,1,0.1c0.5,0.1,0.8,0.4,1,0.7c0.2,0.3,0.3,0.8,0.3,1.3c0,0.1,0,0.4,0,0.7c0,0.3,0,0.6-0.1,1c0,0.4-0.1,0.8-0.1,1.3
		c0,0.5-0.1,0.9-0.1,1.4c0,0.5-0.1,1-0.1,1.4c0,0.5-0.1,0.9-0.1,1.3c0,0.4-0.1,0.8-0.1,1.1c0,0.3-0.1,0.5-0.1,0.7
		c-0.1,0.5-0.3,0.9-0.5,1.3c-0.3,0.3-0.7,0.6-1.1,0.7c-0.3,0.1-0.6,0.1-1,0.1c-0.4,0-0.9,0-1.4,0c-0.5,0-1,0-1.4,0
		c-0.4,0-0.7-0.1-1-0.1c-0.5-0.1-0.8-0.4-1-0.7c-0.2-0.3-0.3-0.8-0.3-1.3c0-0.2,0-0.5,0-1c0-0.5,0.1-1,0.1-1.6
		c0-0.6,0.1-1.2,0.2-1.9c0-0.5,0.1-1,0.1-1.4c0-0.5,0.1-0.9,0.1-1.3c0-0.4,0.1-0.7,0.1-1c0-0.3,0.1-0.5,0.1-0.7
		c0.1-0.5,0.2-0.9,0.5-1.3c0.3-0.3,0.7-0.6,1.2-0.7c0.3-0.1,0.6-0.1,1-0.1C46.1,7.2,46.6,7.2,47.1,7.2z M54,0h-2.3l-0.4,5.1h-4
		c-0.8,0-1.4,0-2.1,0c-0.6,0-1.2,0.1-1.7,0.3c-0.5,0.1-0.9,0.4-1.2,0.7c-0.4,0.3-0.7,0.7-1,1.1c-0.3,0.4-0.5,1-0.6,1.6
		c-0.1,0.4-0.1,1-0.2,1.9c-0.1,0.8-0.2,1.9-0.3,3.1c-0.1,1.2-0.2,2.2-0.3,3c-0.1,0.9-0.1,1.5-0.1,2.1c0,0.6,0.1,1.1,0.3,1.6
		c0.2,0.4,0.5,0.8,0.8,1.1c0.3,0.3,0.7,0.5,1.1,0.7c0.5,0.2,1,0.3,1.6,0.3c0.6,0,1.3,0,2,0c0.8,0,1.4,0,2.1,0c0.6,0,1.2-0.1,1.7-0.3
		c0.7-0.2,1.3-0.6,1.8-1.1c0.5-0.5,0.8-1.3,1-2.2c0.1-0.4,0.2-1,0.2-1.8c0.1-0.8,0.2-1.8,0.3-3L54,0z M36.8,0c0,0-0.1,0-0.2,0
		c-0.2,0-0.3,0-0.6,0c-0.2,0-0.5,0-0.7,0c-0.2,0-0.4,0-0.6,0c-0.2,0-0.2,0-0.2,0l-1.2,14c-0.1,0.8-0.1,1.4-0.2,2
		c-0.1,0.6-0.1,1.1-0.1,1.5c0,0.5,0,0.9,0,1.3c0,0.6,0.1,1.1,0.3,1.6c0.2,0.4,0.5,0.8,0.8,1.1c0.3,0.3,0.7,0.5,1.1,0.7
		c0.4,0.1,0.8,0.2,1.2,0.3c0.4,0,0.9,0.1,1.4,0.1h0.2l0.2-2.1h-0.2c-0.3,0-0.5,0-0.8,0c-0.2,0-0.4-0.1-0.6-0.1
		c-0.5-0.1-0.8-0.4-1-0.7c-0.2-0.3-0.3-0.8-0.3-1.3c0-0.2,0-0.5,0-1c0-0.4,0.1-0.9,0.1-1.5c0-0.6,0.1-1.2,0.2-1.8L36.8,0z M24.6,7.2
		c0.5,0,1,0,1.4,0c0.4,0,0.8,0.1,1,0.1c0.5,0.1,0.8,0.4,1,0.7c0.2,0.3,0.3,0.8,0.3,1.3c0,0.1,0,0.4,0,0.7c0,0.3,0,0.6-0.1,1
		c0,0.4-0.1,0.8-0.1,1.3c0,0.5-0.1,0.9-0.1,1.4c0,0.5-0.1,1-0.1,1.4c0,0.5-0.1,0.9-0.1,1.3c0,0.4-0.1,0.8-0.1,1.1
		c0,0.3-0.1,0.5-0.1,0.7c-0.1,0.5-0.3,0.9-0.5,1.3c-0.3,0.3-0.7,0.6-1.1,0.7c-0.3,0.1-0.6,0.1-1,0.1c-0.4,0-0.9,0-1.4,0
		c-0.5,0-1,0-1.4,0c-0.4,0-0.7-0.1-1-0.1c-0.5-0.1-0.8-0.4-1-0.7c-0.2-0.3-0.3-0.8-0.3-1.3c0-0.2,0-0.5,0-1c0-0.5,0.1-1,0.1-1.6
		c0-0.6,0.1-1.2,0.2-1.9c0-0.5,0.1-1,0.1-1.4c0-0.5,0.1-0.9,0.1-1.3c0-0.4,0.1-0.8,0.1-1.1c0-0.3,0.1-0.5,0.1-0.7
		c0.1-0.5,0.2-0.9,0.5-1.3c0.3-0.3,0.7-0.6,1.2-0.7c0.3-0.1,0.6-0.1,1-0.1C23.6,7.2,24,7.2,24.6,7.2z M23.2,22.5c0.8,0,1.4,0,2.1,0
		c0.6,0,1.2-0.1,1.7-0.3c0.7-0.2,1.3-0.6,1.8-1.1c0.5-0.5,0.8-1.3,1-2.2c0.1-0.3,0.1-0.7,0.2-1.2c0.1-0.5,0.1-1.1,0.2-1.7
		c0.1-0.7,0.1-1.4,0.2-2.2c0.1-1.2,0.2-2.2,0.3-3.1c0.1-0.9,0.1-1.5,0.1-2c0-0.6-0.1-1.1-0.3-1.6c-0.2-0.4-0.4-0.8-0.8-1.1
		c-0.3-0.3-0.7-0.5-1.1-0.7c-0.5-0.2-1-0.3-1.6-0.3c-0.6,0-1.3,0-2,0c-0.8,0-1.4,0-2.1,0c-0.6,0-1.2,0.1-1.7,0.3
		c-0.5,0.1-0.9,0.4-1.2,0.7c-0.4,0.3-0.7,0.7-1,1.1c-0.3,0.4-0.5,1-0.6,1.6c-0.1,0.4-0.2,1.1-0.2,1.9c-0.1,0.9-0.2,1.9-0.3,3.1
		c-0.1,0.8-0.1,1.5-0.2,2.2c-0.1,0.7-0.1,1.2-0.1,1.7c0,0.5,0,0.9,0,1.2c0,0.6,0.1,1.1,0.3,1.6c0.2,0.4,0.5,0.8,0.8,1.1
		c0.3,0.3,0.7,0.5,1.1,0.7c0.5,0.2,1,0.3,1.6,0.3C21.8,22.5,22.5,22.5,23.2,22.5z M11.5,22.5c0,0.3-0.1,0.5-0.1,0.7
		c0,0.2,0,0.3-0.1,0.5c-0.1,0.5-0.3,0.9-0.5,1.3c-0.3,0.3-0.7,0.6-1.1,0.7c-0.2,0.1-0.4,0.1-0.6,0.1c-0.3,0-0.5,0-0.8,0
		c-0.3,0-0.5,0-0.8,0H3.3l-0.2,2.1h4.3c0.6,0,1.2,0,1.8,0c0.6,0,1.2-0.1,1.7-0.3c0.5-0.1,0.9-0.4,1.2-0.7c0.4-0.3,0.7-0.7,1-1.1
		c0.3-0.4,0.5-1,0.6-1.6c0.1-0.3,0.1-0.7,0.2-1.2c0.1-0.5,0.1-1.1,0.2-1.8c0.1-0.7,0.1-1.4,0.2-2.1l0.5-6.3c0.1-0.9,0.1-1.6,0.2-2.1
		c0-0.5,0.1-1,0.1-1.3c0-0.3,0-0.6,0-0.7c0-0.6-0.1-1.1-0.3-1.6c-0.2-0.4-0.4-0.8-0.8-1.1c-0.3-0.3-0.7-0.5-1.1-0.7
		c-0.5-0.2-1-0.3-1.7-0.3c-0.6,0-1.3,0-2.1,0c-0.8,0-1.5,0-2.1,0c-0.6,0-1.2,0.1-1.7,0.3C4.8,5.6,4.3,5.8,4,6.1
		C3.6,6.4,3.3,6.8,3,7.2c-0.3,0.4-0.5,1-0.6,1.6c-0.1,0.4-0.1,1.1-0.2,1.9c-0.1,0.9-0.2,1.9-0.3,3.1c-0.1,0.8-0.1,1.5-0.2,2.2
		c-0.1,0.7-0.1,1.2-0.1,1.7c0,0.5,0,0.9,0,1.2c0,0.6,0.1,1.1,0.3,1.6c0.2,0.4,0.5,0.8,0.8,1.1C3,21.8,3.4,22,3.8,22.1
		c0.5,0.2,1,0.3,1.6,0.3c0.6,0,1.3,0,2,0H11.5z M8.8,7.2c0.5,0,1,0,1.4,0c0.4,0,0.8,0.1,1,0.1c0.5,0.1,0.8,0.4,1,0.7
		c0.2,0.3,0.3,0.8,0.3,1.3c0,0.1,0,0.4,0,0.7c0,0.3,0,0.6-0.1,1c0,0.4-0.1,0.8-0.1,1.3c0,0.5-0.1,0.9-0.1,1.4c0,0.5-0.1,0.9-0.1,1.4
		c0,0.5-0.1,0.9-0.1,1.3c0,0.4-0.1,0.8-0.1,1.1c0,0.3-0.1,0.5-0.1,0.7c-0.1,0.5-0.3,0.9-0.5,1.3c-0.3,0.3-0.7,0.6-1.1,0.7
		c-0.3,0.1-0.6,0.1-1,0.1c-0.4,0-0.9,0-1.4,0c-0.5,0-1,0-1.4,0c-0.4,0-0.8-0.1-1-0.1c-0.5-0.1-0.8-0.4-1-0.7
		c-0.2-0.3-0.3-0.8-0.3-1.3c0-0.2,0-0.5,0-1c0-0.4,0.1-1,0.1-1.6c0-0.6,0.1-1.2,0.2-1.8c0-0.5,0.1-1,0.1-1.4c0-0.5,0.1-0.9,0.1-1.3
		c0-0.4,0.1-0.8,0.1-1.1c0-0.3,0.1-0.5,0.1-0.7c0.1-0.5,0.2-0.9,0.5-1.3c0.3-0.3,0.7-0.6,1.2-0.7c0.3-0.1,0.6-0.1,1-0.1
		C7.8,7.2,8.3,7.2,8.8,7.2z"/>
	<path class="st1" d="M34.4,36.3l-0.5,5.5c-0.1,1.5-1.5,2.8-3,2.8h-3l0.7-8.2H34.4z M29.5,27.1h3c1.5,0,2.7,1.2,2.5,2.8l-0.5,5.5
		h-5.7L29.5,27.1z M21.1,44.5h-3c-1.5,0-2.7-1.2-2.5-2.8l0.5-5.5h5.7L21.1,44.5z M19.6,27.1h3l-0.7,8.2h-5.7l0.5-5.5
		C16.7,28.4,18.1,27.1,19.6,27.1z"/>
	<polygon class="st1" points="23.5,27.1 28.5,27.1 27,44.6 22,44.6 	"/>
</g>
</svg>
