<?xml version="1.0" encoding="utf-8"?>
<!-- Generator: Adobe Illustrator 21.1.0, SVG Export Plug-In . SVG Version: 6.00 Build 0)  -->
<svg version="1.1" id="Layer_1" xmlns="http://www.w3.org/2000/svg" xmlns:xlink="http://www.w3.org/1999/xlink" x="0px" y="0px"
	 viewBox="0 0 58 21" style="enable-background:new 0 0 58 21;" xml:space="preserve">
<style type="text/css">
	.st0{fill-rule:evenodd;clip-rule:evenodd;fill:#EC1C24;}
	.st1{fill-rule:evenodd;clip-rule:evenodd;fill:#F6931D;}
</style>
<g>
	<path class="st0" d="M55.8,8.2h0.1c0,0,0.1,0,0.1,0c0,0,0.1-0.1,0.1-0.1c0,0,0-0.1-0.1-0.1c0,0-0.1,0-0.1,0h-0.1V8.2z M55.8,8.8
		h-0.2v-1H56c0.1,0,0.2,0,0.2,0.1c0.1,0.1,0.1,0.2,0.1,0.3c0,0.1-0.1,0.2-0.2,0.3l0.2,0.4h-0.2l-0.1-0.4h-0.2V8.8z M55.9,9.2
		c0.5,0,0.8-0.4,0.8-0.9c0-0.5-0.4-0.9-0.8-0.9c-0.5,0-0.8,0.4-0.8,0.9C55.1,8.8,55.5,9.2,55.9,9.2z M54.8,8.3
		c0-0.6,0.5-1.1,1.1-1.1c0.6,0,1.1,0.5,1.1,1.1c0,0.6-0.5,1.1-1.1,1.1C55.3,9.4,54.8,8.9,54.8,8.3z"/>
	<path class="st0" d="M39.2,0.7l-0.3,1.9c-0.6-0.3-1.1-0.5-1.6-0.5c-1.4,0-2.3,1.4-2.3,3.4c0,1.4,0.6,2.2,1.7,2.2
		c0.5,0,0.9-0.1,1.6-0.5l-0.3,2c-0.7,0.2-1.1,0.3-1.6,0.3c-2,0-3.2-1.5-3.2-3.9c0-3.2,1.7-5.4,4.1-5.4c0.3,0,0.6,0,0.8,0.1l0.8,0.2
		C39,0.6,39.1,0.6,39.2,0.7"/>
	<path class="st0" d="M33.2,2C33.1,2,33,2,33,2c-0.6,0-0.9,0.3-1.5,1.2L31.6,2H30l-1.1,7.3h1.8c0.7-4.5,0.8-5.2,1.7-5.2
		c0.1,0,0.1,0,0.1,0C32.7,3.2,32.9,2.6,33.2,2L33.2,2z"/>
	<path class="st0" d="M22.2,9.3c-0.5,0.2-0.9,0.2-1.3,0.2c-0.9,0-1.4-0.6-1.4-1.6c0-0.2,0-0.4,0.1-0.7l0.1-0.7l0.1-0.6l0.8-5h1.8
		L22.1,2H23l-0.3,1.8h-0.9l-0.5,3c0,0.1,0,0.2,0,0.3c0,0.4,0.2,0.5,0.6,0.5c0.2,0,0.4,0,0.5-0.1L22.2,9.3z"/>
	<path class="st0" d="M15,4.4c0,0.9,0.4,1.6,1.4,2c0.7,0.4,0.9,0.5,0.9,0.8c0,0.5-0.3,0.7-1,0.7c-0.5,0-1-0.1-1.6-0.3l-0.3,1.7
		l0.1,0l0.3,0.1c0.1,0,0.3,0,0.5,0.1c0.4,0,0.8,0.1,1,0.1C18.1,9.5,19,8.7,19,7c0-1-0.4-1.6-1.3-2c-0.8-0.4-0.8-0.4-0.8-0.8
		c0-0.4,0.3-0.6,0.9-0.6c0.4,0,0.8,0,1.3,0.1L19.3,2c-0.5-0.1-1.2-0.1-1.6-0.1C15.7,1.9,15,3,15,4.4"/>
	<path class="st0" d="M51.1,7.6c0.9,0,1.5-1,1.5-2.5c0-0.9-0.3-1.4-1-1.4c-0.8,0-1.4,1-1.4,2.5C50.1,7.1,50.4,7.6,51.1,7.6
		 M53.8,9.3H52l0.1-0.7c-0.5,0.6-1,0.8-1.7,0.8c-1.3,0-2.2-1.2-2.2-3c0-2.4,1.4-4.5,3-4.5c0.7,0,1.2,0.3,1.8,1l0.4-2.6h1.8L53.8,9.3
		z"/>
	<path class="st0" d="M27,4.8c0-0.2,0-0.3,0-0.4c0-0.6-0.3-0.9-0.9-0.9c-0.6,0-1,0.5-1.2,1.3L27,4.8z M28,9.2
		c-0.6,0.2-1.2,0.3-1.9,0.3c-2,0-3.1-1.1-3.1-3.3c0-2.5,1.4-4.4,3.2-4.4c1.5,0,2.5,1,2.5,2.7c0,0.5-0.1,1.1-0.2,1.8h-3.6
		c0,0.1,0,0.2,0,0.2c0,0.9,0.5,1.3,1.6,1.3c0.7,0,1.2-0.1,1.9-0.5L28,9.2z"/>
	<polygon class="st0" points="7.7,9.3 5.9,9.3 6.9,2.5 4.6,9.3 3.3,9.3 3.2,2.5 2.1,9.3 0.4,9.3 1.8,0.4 4.4,0.4 4.5,5.9 6.3,0.4 
		9.1,0.4 	"/>
	<path class="st0" d="M13.7,9.3h-1.5l0-0.8c-0.5,0.6-1.1,0.9-1.9,0.9c-1,0-1.7-0.8-1.7-2c0-1.8,1.2-2.8,3.2-2.8c0.2,0,0.5,0,0.7,0.1
		c0.1-0.2,0.1-0.3,0.1-0.5c0-0.5-0.3-0.7-1.2-0.7c-0.5,0-1.1,0.1-1.5,0.2L9.7,3.9l-0.2,0l0.3-1.6C10.7,2,11.3,1.9,12,1.9
		c1.6,0,2.4,0.7,2.4,2.1c0,0.4,0,0.6-0.2,1.4l-0.4,2.6l-0.1,0.5l0,0.4l0,0.3L13.7,9.3z M12.4,6.1c-0.2,0-0.3,0-0.4,0
		c-1,0-1.6,0.4-1.6,1.1c0,0.5,0.3,0.7,0.7,0.7C11.8,7.9,12.4,7.2,12.4,6.1z"/>
	<path class="st0" d="M43.7,9.3h-1.5l0-0.8c-0.5,0.6-1.1,0.9-1.9,0.9c-1,0-1.7-0.8-1.7-2c0-1.8,1.2-2.8,3.2-2.8c0.2,0,0.5,0,0.7,0.1
		c0.1-0.2,0.1-0.3,0.1-0.5c0-0.5-0.3-0.7-1.2-0.7c-0.5,0-1.1,0.1-1.5,0.2l-0.3,0.1l-0.2,0l0.3-1.6C40.7,2,41.3,1.9,42,1.9
		c1.6,0,2.4,0.7,2.4,2.1c0,0.4,0,0.6-0.1,1.4l-0.4,2.6l-0.1,0.5l-0.1,0.4l0,0.3L43.7,9.3z M42.4,6.1c-0.2,0-0.3,0-0.4,0
		c-1,0-1.6,0.4-1.6,1.1c0,0.5,0.3,0.7,0.7,0.7C41.8,7.9,42.3,7.2,42.4,6.1z"/>
	<path class="st0" d="M48.8,2c-0.1,0-0.1,0-0.2,0c-0.6,0-0.9,0.3-1.5,1.2L47.3,2h-1.7l-1.1,7.3h1.8C47,4.9,47.2,4.1,48,4.1
		c0.1,0,0.1,0,0.1,0C48.3,3.2,48.5,2.6,48.8,2L48.8,2z"/>
	<path class="st1" d="M42.9,16.4c0-1.8-0.9-3.3-2.6-3.3c-2,0-3.2,1.7-3.2,4.3c0,1.8,0.8,3.3,2.6,3.3C41.6,20.8,42.9,19.5,42.9,16.4
		 M41.1,16.4c0,1.7-0.5,2.6-1.3,2.6c-0.6,0-0.9-0.6-0.9-1.6c0-1.2,0.5-2.5,1.4-2.5C40.9,14.9,41.1,15.7,41.1,16.4z"/>
	<path class="st1" d="M37.7,11.9l-0.3,1.9c-0.6-0.3-1-0.5-1.5-0.5c-1.3,0-2.2,1.4-2.2,3.4c0,1.4,0.6,2.2,1.6,2.2
		c0.4,0,0.9-0.1,1.5-0.5l-0.3,2c-0.6,0.2-1,0.3-1.5,0.3c-1.8,0-3-1.5-3-3.9c0-3.2,1.6-5.5,3.8-5.5c0.3,0,0.6,0,0.8,0.1l0.7,0.2
		C37.5,11.8,37.5,11.8,37.7,11.9"/>
	<path class="st1" d="M26.4,13.2c-0.1,0-0.1,0-0.2,0c-0.6,0-0.9,0.3-1.4,1.2l0.2-1.1h-1.5l-1,7.3h1.7c0.6-4.5,0.8-5.2,1.6-5.2
		c0,0,0.1,0,0.1,0C25.9,14.5,26.1,13.8,26.4,13.2L26.4,13.2z"/>
	<path class="st1" d="M46.1,18.8c0.8,0,1.4-1,1.4-2.5c0-0.9-0.3-1.4-0.9-1.4c-0.8,0-1.3,1-1.3,2.5C45.3,18.3,45.5,18.8,46.1,18.8
		 M48.6,20.5H47l0.1-0.7c-0.5,0.6-1,0.8-1.6,0.8c-1.2,0-2.1-1.2-2.1-3c0-2.4,1.3-4.5,2.8-4.5c0.7,0,1.2,0.3,1.6,1l0.4-2.6h1.7
		L48.6,20.5z"/>
	<path class="st1" d="M9.4,16.1c0-0.2,0-0.3,0-0.4c0-0.6-0.3-0.9-0.8-0.9c-0.5,0-0.9,0.5-1.1,1.3L9.4,16.1z M10.4,20.5
		c-0.6,0.2-1.1,0.3-1.7,0.3c-1.9,0-2.9-1.1-2.9-3.3c0-2.5,1.3-4.3,3-4.3c1.4,0,2.3,1,2.3,2.7c0,0.5-0.1,1.1-0.2,1.8H7.4
		c0,0.1,0,0.2,0,0.2c0,0.9,0.5,1.3,1.5,1.3c0.6,0,1.2-0.1,1.8-0.5L10.4,20.5z"/>
	<path class="st1" d="M29.7,16.1c0-0.2,0-0.3,0-0.4c0-0.6-0.3-0.9-0.8-0.9c-0.5,0-0.9,0.5-1.1,1.3L29.7,16.1z M30.7,20.5
		c-0.6,0.2-1.1,0.3-1.7,0.3c-1.9,0-2.9-1.1-2.9-3.3c0-2.5,1.3-4.3,3-4.3c1.4,0,2.3,1,2.3,2.7c0,0.5-0.1,1.1-0.2,1.8h-3.4
		c0,0.1,0,0.2,0,0.2c0,0.9,0.5,1.3,1.5,1.3c0.6,0,1.2-0.1,1.8-0.5L30.7,20.5z"/>
	<path class="st1" d="M53.5,16.1c0-0.2,0-0.3,0-0.4c0-0.6-0.3-0.9-0.8-0.9c-0.5,0-0.9,0.5-1.1,1.3L53.5,16.1z M54.5,20.5
		c-0.6,0.2-1.1,0.3-1.8,0.3c-1.9,0-2.9-1.1-2.9-3.3c0-2.5,1.3-4.3,3-4.3c1.4,0,2.3,1,2.3,2.7c0,0.5-0.1,1.1-0.2,1.8h-3.4
		c0,0.1,0,0.2,0,0.2c0,0.9,0.5,1.3,1.5,1.3c0.6,0,1.2-0.1,1.8-0.5L54.5,20.5z"/>
	<path class="st1" d="M5.3,13.6c-0.3-0.2-0.8-0.4-1.4-0.4c-0.7,0-1.2,0.1-1.2,0.9c0,1.3,2.5,0.8,2.5,3.6c0,2.5-1.7,3.2-3.2,3.2
		c-0.7,0-1.4-0.2-2-0.5l0.4-1.9C0.7,18.8,1.4,19,2,19c0.5,0,1.4-0.1,1.4-1.1c0-1.5-2.5-0.9-2.5-3.5c0-2.4,1.5-3.1,2.9-3.1
		c0.8,0,1.5,0.1,2,0.4L5.3,13.6z"/>
	<path class="st1" d="M15.4,20.5c-0.4,0.2-0.8,0.3-1.5,0.3c-1.5,0-2.4-1.5-2.4-3.3c0-2.4,1.3-4.3,3.3-4.3c0.4,0,1.1,0.2,1.6,0.5
		L16,15.4c-0.4-0.2-0.7-0.4-1.1-0.4c-0.9,0-1.6,0.8-1.6,2.3c0,0.9,0.5,1.6,1.2,1.6c0.4,0,0.8-0.1,1.1-0.3L15.4,20.5z"/>
	<path class="st1" d="M21.7,18.6c-0.1,0.6-0.2,1.2-0.2,1.9h-1.6l0.1-1.2h0c-0.5,0.8-1,1.3-2,1.3c-1,0-1.6-1.1-1.6-2.5
		c0-0.5,0-0.8,0.1-1.5l0.5-3.4h1.8l-0.5,3.4c0,0.4-0.1,0.7-0.1,1.1c0,0.4,0.2,0.9,0.7,0.8c0.7,0,1.2-0.9,1.3-2l0.5-3.3h1.8
		L21.7,18.6z"/>
	<polygon class="st1" points="56.2,20.4 55.9,20.4 55.9,19.2 55.5,19.2 55.5,19 56.6,19 56.6,19.2 56.2,19.2 	"/>
	<polygon class="st1" points="58,20.4 57.7,20.4 57.7,19.2 57.7,19.2 57.5,20.4 57.2,20.4 57,19.2 57,19.2 57,20.4 56.7,20.4 
		56.7,19 57.1,19 57.4,20.1 57.4,20.1 57.6,19 58,19 	"/>
</g>
</svg>
