<?xml version="1.0" encoding="utf-8"?>
<!-- Generator: Adobe Illustrator 21.1.0, SVG Export Plug-In . SVG Version: 6.00 Build 0)  -->
<svg version="1.1" id="Layer_1" xmlns="http://www.w3.org/2000/svg" xmlns:xlink="http://www.w3.org/1999/xlink" x="0px" y="0px"
	 viewBox="0 0 16 17" style="enable-background:new 0 0 16 17;" xml:space="preserve">
<style type="text/css">
	.st0{fill:#FFFFFF;}
</style>
<path class="st0" d="M9,8.5l6.8-6.8c0.3-0.3,0.3-0.7,0-1c-0.3-0.3-0.7-0.3-1,0L8,7.5L1.2,0.7c-0.3-0.3-0.7-0.3-1,0s-0.3,0.7,0,1
	L7,8.5l-6.8,6.8c-0.3,0.3-0.3,0.7,0,1c0.3,0.3,0.7,0.3,1,0L8,9.5l6.8,6.8c0.3,0.3,0.7,0.3,1,0c0.3-0.3,0.3-0.7,0-1L9,8.5z"/>
</svg>
