<?xml version="1.0" encoding="utf-8"?>
<!-- Generator: Adobe Illustrator 21.1.0, SVG Export Plug-In . SVG Version: 6.00 Build 0)  -->
<svg version="1.1" id="Layer_1" xmlns="http://www.w3.org/2000/svg" xmlns:xlink="http://www.w3.org/1999/xlink" x="0px" y="0px"
	 viewBox="0 0 22 19" style="enable-background:new 0 0 22 19;" xml:space="preserve">
<g>
	<g>
		<path d="M21.3,1.9H0.7C0.3,1.9,0,1.6,0,1.2s0.3-0.7,0.7-0.7h20.6c0.4,0,0.7,0.3,0.7,0.7S21.7,1.9,21.3,1.9z"/>
	</g>
	<g>
		<path d="M14.4,10.2H0.7C0.3,10.2,0,9.9,0,9.5c0-0.4,0.3-0.7,0.7-0.7h13.7c0.4,0,0.7,0.3,0.7,0.7C15.1,9.9,14.8,10.2,14.4,10.2z"/>
	</g>
	<g>
		<path d="M18.5,18.5H0.7c-0.4,0-0.7-0.3-0.7-0.7c0-0.4,0.3-0.7,0.7-0.7h17.9c0.4,0,0.7,0.3,0.7,0.7C19.2,18.2,18.9,18.5,18.5,18.5z
			"/>
	</g>
</g>
</svg>
