<?xml version="1.0" encoding="utf-8"?>
<!-- Generator: Adobe Illustrator 21.1.0, SVG Export Plug-In . SVG Version: 6.00 Build 0)  -->
<svg version="1.1" id="Layer_1" xmlns="http://www.w3.org/2000/svg" xmlns:xlink="http://www.w3.org/1999/xlink" x="0px" y="0px"
	 viewBox="0 0 62 44" style="enable-background:new 0 0 62 44;" xml:space="preserve">
<g>
	<g>
		<path d="M40.7,18.3c-0.2,0-0.3,0-0.4-0.1c-0.4-0.2-0.5-0.8-0.3-1.1l3.8-5.9c0.2-0.4,0.8-0.5,1.1-0.3c0.4,0.2,0.5,0.8,0.3,1.1
			l-3.8,5.9C41.3,18.2,41,18.3,40.7,18.3z"/>
	</g>
	<g>
		<path d="M17.5,33.3c-0.2,0-0.3,0-0.4-0.1c-0.4-0.2-0.5-0.8-0.3-1.1l3.8-5.9c0.2-0.4,0.8-0.5,1.1-0.3c0.4,0.2,0.5,0.8,0.3,1.1
			l-3.8,5.9C18,33.1,17.8,33.3,17.5,33.3z"/>
	</g>
	<path d="M54.9,0.3c-3.9,0-7.1,3.2-7.1,7.1c0,2.3,1.1,4.3,2.7,5.6l-5.7,9.2c-0.9-0.4-1.9-0.7-3-0.7c-2.3,0-4.3,1.1-5.6,2.7l-9.4-5.9
		c0.4-0.9,0.7-2,0.7-3c0-3.9-3.2-7.1-7.1-7.1c-3.9,0-7.1,3.2-7.1,7.1c0,2.3,1.1,4.3,2.7,5.6l-5.7,9.2c-0.9-0.4-1.9-0.7-3-0.7
		c-3.9,0-7.1,3.2-7.1,7.1s3.2,7.1,7.1,7.1c3.9,0,7.1-3.2,7.1-7.1c0-2.3-1.1-4.3-2.7-5.6l5.7-9.2c0.9,0.4,1.9,0.7,3,0.7
		c2.3,0,4.3-1.1,5.6-2.7l9.4,5.9c-0.4,0.9-0.7,2-0.7,3c0,3.9,3.2,7.1,7.1,7.1c3.9,0,7.1-3.2,7.1-7.1c0-2.3-1.1-4.3-2.7-5.6l5.7-9.2
		c0.9,0.4,1.9,0.7,3,0.7c3.9,0,7.1-3.2,7.1-7.1S58.8,0.3,54.9,0.3z M12.6,36.6c0,3-2.5,5.5-5.5,5.5c-3,0-5.5-2.5-5.5-5.5
		c0-3,2.5-5.5,5.5-5.5c0.8,0,1.5,0.2,2.2,0.4c0.5,0.2,1,0.5,1.4,0.9C11.9,33.4,12.6,34.9,12.6,36.6z M20.3,20.8
		c-0.8,0-1.5-0.2-2.2-0.4c-0.5-0.2-1-0.5-1.4-0.9c-1.2-1-1.9-2.5-1.9-4.2c0-3,2.5-5.5,5.5-5.5c3,0,5.5,2.5,5.5,5.5
		c0,0.8-0.2,1.5-0.4,2.2c-0.2,0.5-0.5,1-0.9,1.4C23.4,20.1,22,20.8,20.3,20.8z M47.2,28.7c0,3-2.5,5.5-5.5,5.5c-3,0-5.5-2.5-5.5-5.5
		c0-0.8,0.2-1.5,0.4-2.2c0.2-0.5,0.5-1,0.9-1.4c1-1.2,2.5-1.9,4.2-1.9c0.8,0,1.5,0.2,2.2,0.4c0.5,0.2,1,0.5,1.4,0.9
		C46.4,25.5,47.2,27,47.2,28.7z M54.9,12.9c-0.8,0-1.5-0.2-2.2-0.4c-0.5-0.2-1-0.5-1.4-0.9c-1.2-1-1.9-2.5-1.9-4.2
		c0-3,2.5-5.5,5.5-5.5c3,0,5.5,2.5,5.5,5.5C60.4,10.4,57.9,12.9,54.9,12.9z"/>
</g>
</svg>
