<?xml version="1.0" encoding="utf-8"?>
<!-- Generator: Adobe Illustrator 21.1.0, SVG Export Plug-In . SVG Version: 6.00 Build 0)  -->
<svg version="1.1" id="Layer_1" xmlns="http://www.w3.org/2000/svg" xmlns:xlink="http://www.w3.org/1999/xlink" x="0px" y="0px"
	 viewBox="0 0 58 48" style="enable-background:new 0 0 58 48;" xml:space="preserve">
<path d="M30.9,33.1h15.4c0.6,0,1-0.4,1-1v-8.7c0-0.6-0.4-1-1-1H30.9c-0.6,0-1,0.4-1,1v8.7C29.9,32.7,30.3,33.1,30.9,33.1L30.9,33.1z
	 M31.9,24.4h13.5v6.8H31.9V24.4z"/>
<path d="M4.8,20.6h7.7c0.6,0,1-0.4,1-1s-0.4-1-1-1H4.8c-0.6,0-1,0.4-1,1C3.9,20.2,4.2,20.6,4.8,20.6L4.8,20.6z"/>
<path d="M16.4,20.6h7.7c0.6,0,1-0.4,1-1s-0.4-1-1-1h-7.7c-0.6,0-1,0.4-1,1C15.4,20.2,15.8,20.6,16.4,20.6L16.4,20.6z"/>
<path d="M4.8,24.4h12.6c0.6,0,1-0.4,1-1s-0.4-1-1-1H4.8c-0.6,0-1,0.4-1,1C3.9,24.1,4.2,24.4,4.8,24.4L4.8,24.4z"/>
<path d="M24.1,22.5h-2.9c-0.6,0-1,0.4-1,1s0.4,1,1,1h2.9c0.6,0,1-0.4,1-1S24.7,22.5,24.1,22.5L24.1,22.5z"/>
<path d="M57.1,10.5c-0.7-0.9-1.5-1.4-2.6-1.4l-2.3-0.3V4.2c0-2.1-1.7-3.9-3.9-3.9H3.9C1.7,0.3,0,2,0,4.2v30.9c0,1.7,1.2,3.2,2.8,3.7
	c0,2,1.4,3.6,3.4,3.8l44.6,5h0.4c1.9,0,3.7-1.4,3.9-3.3l2.9-31C58,12.4,57.7,11.3,57.1,10.5L57.1,10.5z M1.9,7.1h48.3v5.8H1.9V7.1z
	 M3.9,2.2h44.4c1.1,0,1.9,0.9,1.9,1.9v1H1.9v-1C1.9,3.1,2.8,2.2,3.9,2.2L3.9,2.2z M1.9,35.1V14.8h48.3v20.3c0,1.1-0.9,1.9-1.9,1.9
	H3.9C2.8,37,1.9,36.1,1.9,35.1L1.9,35.1z M56,13l-2.9,31C53,45,52,45.8,51,45.7l-44.5-5c-1-0.1-1.6-0.9-1.7-1.7h43.5
	c2.1,0,3.9-1.7,3.9-3.9V10.6l2.2,0.2c0.5,0,1,0.3,1.3,0.7C55.9,11.9,56.1,12.5,56,13L56,13z"/>
</svg>
