<?xml version="1.0" encoding="utf-8"?>
<!-- Generator: Adobe Illustrator 21.1.0, SVG Export Plug-In . SVG Version: 6.00 Build 0)  -->
<svg version="1.1" id="Layer_1" xmlns="http://www.w3.org/2000/svg" xmlns:xlink="http://www.w3.org/1999/xlink" x="0px" y="0px"
	 viewBox="0 0 60 60" style="enable-background:new 0 0 60 60;" xml:space="preserve">
<path d="M51.3,24.5c-0.3-0.2-0.6-0.2-0.8-0.1c-0.3,0.1-0.5,0.3-0.6,0.6l0.1,0h0l-0.1,0c-0.1,0.4,0,0.8,0.4,1c5,3.3,7.9,8.8,7.8,14.7
	c-0.1,9.3-7.4,16.9-16.7,17.2c-3.4,0.1-6.8-0.7-9.7-2.5c4.5-3.7,7-9.1,7-14.9c0-1.3-0.1-2.6-0.4-3.9c0.5-0.2,1-0.5,1.4-0.8
	c6.1-3.6,9.8-10.2,9.6-17.2c-0.1-4.9-2.1-9.6-5.6-13.1C40.2,2.2,35.5,0.1,30.6,0c-5.3-0.1-10.2,1.8-14,5.5
	c-3.8,3.7-5.9,8.6-5.9,13.9c0,0.4,0,0.8,0,1.2c0,0.3,0.2,0.6,0.4,0.7c0.3,0.2,0.6,0.2,0.8,0.1l0,0c0.4-0.1,0.6-0.5,0.6-0.9
	c0-0.3,0-0.7,0-1c0-4.8,1.9-9.2,5.4-12.6c3.4-3.3,8-5,12.8-4.9C40,2.3,47.3,9.8,47.4,19.2c0,1.1-0.1,2.2-0.3,3.3
	c-2.1-0.7-4.3-1.1-6.5-1.1c-3.8,0-7.5,1.1-10.7,3.2c-0.5-0.3-1-0.6-1.5-0.9c-3-1.6-6.3-2.4-9.7-2.3c-4.9,0.1-9.6,2.2-13.1,5.7
	C2.2,30.5,0.1,35.2,0,40.1c-0.1,5.3,1.8,10.2,5.5,14c3.7,3.8,8.6,5.9,13.9,5.9c2.8,0,5.5-0.6,8-1.7c0.3-0.1,0.5-0.4,0.5-0.7
	c0-0.3-0.1-0.6-0.3-0.9l0,0c-0.3-0.2-0.7-0.3-1-0.1c-2.5,1.1-5.2,1.7-7.9,1.6c-9-0.4-16.4-7.7-16.7-16.7c-0.3-6.8,3.5-13.2,9.6-16.3
	c1.6,5.1,5.3,9.4,10.2,11.7c-0.1,0.5-0.2,1.1-0.3,1.6c-0.1,0.8-0.1,1.5-0.1,2.3c0,5.3,2.1,10.2,5.9,13.9c3.6,3.5,8.4,5.5,13.5,5.5
	c0.2,0,0.4,0,0.6,0c4.9-0.1,9.6-2.2,13.1-5.7c3.5-3.5,5.5-8.2,5.6-13.1C60.2,34.5,56.9,28.3,51.3,24.5z M23.3,39
	c0-0.5,0.1-1,0.2-1.5c2.1,0.7,4.3,1.1,6.5,1.1c2.2,0,4.4-0.4,6.5-1.1c0.2,1,0.3,2.1,0.3,3.1c0,5.4-2.5,10.4-6.8,13.8
	c-4.3-3.3-6.8-8.4-6.8-13.8C23.2,40.1,23.3,39.6,23.3,39z M30,36.8c-2.1,0-4.1-0.4-6-1.1c1-3.5,3.2-6.6,6-8.8c2.9,2.2,5,5.3,6,8.8
	C34.1,36.4,32.1,36.8,30,36.8z M31.6,25.8c2.7-1.7,5.8-2.5,9-2.5c2.1,0,4.1,0.4,6,1.1c-1.2,4.1-3.9,7.6-7.6,9.9
	c-0.4,0.3-0.9,0.5-1.3,0.7C36.7,31.3,34.5,28.2,31.6,25.8z M28.4,25.8c-2.9,2.4-5,5.6-6.2,9.2c-4.3-2.2-7.5-6-8.9-10.6
	c1.9-0.7,4-1.1,6-1.1c2.7,0,5.3,0.6,7.7,1.8C27.5,25.2,27.9,25.5,28.4,25.8z"/>
</svg>
