<?xml version="1.0" encoding="utf-8"?>
<!-- Generator: Adobe Illustrator 21.1.0, SVG Export Plug-In . SVG Version: 6.00 Build 0)  -->
<svg version="1.1" id="Layer_1" xmlns="http://www.w3.org/2000/svg" xmlns:xlink="http://www.w3.org/1999/xlink" x="0px" y="0px"
	 viewBox="0 0 53 59" style="enable-background:new 0 0 53 59;" xml:space="preserve">
<g>
	<path d="M32.4,15.8c0-3.2-2.6-5.9-5.9-5.9s-5.9,2.6-5.9,5.9v4.9h-4.9v18.6h21.6V20.7h-4.9V15.8z M22.6,15.8c0-2.2,1.8-3.9,3.9-3.9
		c2.2,0,3.9,1.8,3.9,3.9v4.9h-7.9V15.8z M35.3,22.6v14.7H17.7V22.6H35.3z M35.3,22.6"/>
	<path d="M25.5,32.3v2.1c0,0.5,0.4,1,1,1c0.5,0,1-0.4,1-1v-2.1c1.7-0.4,2.9-2,2.9-3.8c0-2.2-1.8-3.9-3.9-3.9c-2.2,0-3.9,1.8-3.9,3.9
		C22.6,30.4,23.8,31.9,25.5,32.3L25.5,32.3z M26.5,26.6c1.1,0,2,0.9,2,2c0,1.1-0.9,2-2,2c-1.1,0-2-0.9-2-2
		C24.5,27.4,25.4,26.6,26.5,26.6L26.5,26.6z M26.5,26.6"/>
	<path d="M26.5,0.1C11.9,0.1,0,12,0,26.6C0,40.4,10.7,51.8,24.2,53l-4.3,4.3c-0.4,0.4-0.4,1,0,1.4c0.2,0.2,0.4,0.3,0.7,0.3
		c0.3,0,0.5-0.1,0.7-0.3l5.9-5.9c0.1-0.1,0.2-0.2,0.2-0.3c0.1-0.2,0.1-0.5,0-0.7c-0.1-0.1-0.1-0.2-0.2-0.3l-5.9-5.9
		c-0.4-0.4-1-0.4-1.4,0c-0.4,0.4-0.4,1,0,1.4L24,51C11.6,49.7,2,39.3,2,26.6C2,13,13,2,26.5,2C40,2,51,13,51,26.6
		c0,6.5-2.5,12.6-7.1,17.3c-0.4,0.4-0.4,1,0,1.4c0.4,0.4,1,0.4,1.4,0c4.9-5,7.7-11.6,7.7-18.6C53,12,41.1,0.1,26.5,0.1L26.5,0.1z
		 M26.5,0.1"/>
</g>
</svg>
