<?xml version="1.0" encoding="utf-8"?>
<!-- Generator: Adobe Illustrator 21.1.0, SVG Export Plug-In . SVG Version: 6.00 Build 0)  -->
<svg version="1.1" id="Layer_1" xmlns="http://www.w3.org/2000/svg" xmlns:xlink="http://www.w3.org/1999/xlink" x="0px" y="0px"
	 viewBox="0 0 53 31" style="enable-background:new 0 0 53 31;" xml:space="preserve">
<style type="text/css">
	.st0{fill-rule:evenodd;clip-rule:evenodd;fill:#3A57A6;}
	.st1{fill-rule:evenodd;clip-rule:evenodd;fill:#F7971D;}
</style>
<g>
	<path class="st0" d="M45.4,20.5c-0.1,0.6-0.2,1.2-0.3,1.7c-0.5-0.2-1.1-0.4-1.9-0.4c-0.5,0-1.1,0.2-1.1,0.7c0,0.5,0.8,0.8,1.2,1
		c0.8,0.4,1.7,0.9,1.7,2c0.1,0.8-0.3,1.5-0.7,1.9c-1.1,1.1-3.6,1.2-5.4,0.5c0.1-0.6,0.2-1.2,0.3-1.7c0.7,0.3,1.6,0.7,2.6,0.5
		c0.5-0.1,1-0.3,1-0.8c0-0.6-1.1-0.9-1.6-1.2c-0.6-0.3-1.3-0.9-1.4-1.8c0-0.6,0.2-1.1,0.5-1.5C41.2,20.2,43.5,19.9,45.4,20.5z"/>
	<polygon class="st0" points="25,9.4 27.3,9.4 25.9,18.2 23.6,18.2 25,9.4 	"/>
	<path class="st0" d="M17.1,9.4h3.5c2.2,0,2.8,1.3,2.6,2.8c-0.2,1.3-1.1,2.1-2.3,2.4l2.2,3.6h-2.9l-1.7-3.5L18,18.2h-2.3L17.1,9.4
		L17.1,9.4z M19.1,11.1l-0.4,2.2h0.7c0.6,0,1.3-0.5,1.4-1.1l0,0c0.1-0.6-0.3-1.1-1-1.1H19.1L19.1,11.1z"/>
	<polygon class="st0" points="35.5,9.4 37.8,9.4 36.4,18.2 34.1,18.2 35.5,9.4 	"/>
	<polygon class="st0" points="39.5,9.4 44.5,9.4 44.2,11.3 41.5,11.3 41.3,12.8 43.9,12.8 43.5,14.7 40.9,14.7 40.7,16.3 43.4,16.3 
		43.1,18.2 38.1,18.2 39.5,9.4 	"/>
	<polygon class="st0" points="10.7,9.4 15.8,9.4 15.4,11.3 12.7,11.3 12.5,12.8 15.1,12.8 14.8,14.7 12.2,14.7 11.9,16.3 14.6,16.3 
		14.3,18.2 9.3,18.2 10.7,9.4 	"/>
	<polygon class="st0" points="29.1,9.4 34.1,9.4 33.8,11.3 31,11.3 30.8,12.8 33.3,12.8 33,14.7 30.5,14.7 29.9,18.2 27.7,18.2 
		29.1,9.4 	"/>
	<path class="st0" d="M45.9,9.4h3c3.6,0,4.4,2.7,4.1,4.4c-0.4,2.5-2.6,4.4-5.5,4.4h-3L45.9,9.4L45.9,9.4z M47.9,11.3
		c0.2,0,0.3,0,0.5,0c1.7,0,2.4,1.2,2.2,2.4c-0.3,1.6-1.4,2.6-2.9,2.6c-0.2,0-0.4,0-0.6,0L47.9,11.3L47.9,11.3z"/>
	<path class="st0" d="M0,8.1h4.2l0.5,6.5c2.8-4.8,5.6-9.5,8.5-14.1h1.4c-3,5.9-6,11.7-8.9,17.7H2.6l-0.8-7.1C1.6,9.4,1.3,8.6,0,8.4
		V8.1L0,8.1z"/>
	<polygon class="st1" points="1.6,4.5 5.2,6 5.5,10 5.8,10 9.1,4.5 9.1,4.2 1.6,4.2 1.6,4.5 	"/>
	<path class="st0" d="M18.3,24.6c0.5,0,0.9,0.5,0.8,1.1c-0.1,0.6-0.6,1.1-1.2,1.1c-0.5,0-0.9-0.5-0.8-1.1
		C17.2,25.1,17.7,24.6,18.3,24.6L18.3,24.6z M16.4,20.3h1.5l-0.5,3.5c0.4-0.4,0.9-0.7,1.5-0.7c1.2,0,2,1.1,1.8,2.6
		c-0.2,1.4-1.3,2.6-2.5,2.6c-0.6,0-1-0.3-1.3-0.7l-0.1,0.6h-1.5L16.4,20.3L16.4,20.3z"/>
	<polygon class="st0" points="20.8,23.3 22.6,23.3 23.4,25.8 24.9,23.3 26.7,23.3 22.1,30.5 20.4,30.5 22.3,27.5 20.8,23.3 	"/>
	<polygon class="st0" points="35.5,28.1 36.8,20.3 38.9,20.3 37.6,28.1 35.5,28.1 	"/>
	<path class="st0" d="M33.7,20.3c-0.7,1.7-1.4,3.6-2.1,5.3l-0.2-1c0,0,0,0,0,0l0,0.2c-0.2-0.5-0.4-1-0.8-1.5c0,0,0,0,0,0
		c-0.1-0.1-0.1-0.2-0.2-0.2c0,0-0.1-0.1-0.1-0.1c-0.5-0.6-1.1-1.1-1.8-1.4l1.9,6.7h2.3c1.1-2.6,2.2-5.2,3.3-7.8
		C35.2,20.3,34.5,20.3,33.7,20.3z"/>
	<path class="st1" d="M29.7,20.3h-3.5v0.2c2,0.4,4.5,2.1,5.2,4.2l-0.7-3.6C30.6,20.5,30.2,20.3,29.7,20.3z"/>
	<path class="st0" d="M52.6,28.1c-0.7,0-1.3,0-2,0c-0.1-0.4-0.2-0.8-0.3-1.2c-0.9,0-1.8,0-2.7,0l-0.5,1.2c-0.7,0-1.5,0-2.2,0
		l2.9-6.7c0.1-0.3,0.4-0.7,0.5-0.9c0.1-0.3,0.7-0.3,1-0.3h1.6L52.6,28.1z M49.3,22.5l-1.1,2.9H50L49.3,22.5z"/>
</g>
</svg>
