<?xml version="1.0" encoding="utf-8"?>
<!-- Generator: Adobe Illustrator 21.1.0, SVG Export Plug-In . SVG Version: 6.00 Build 0)  -->
<svg version="1.1" id="Layer_1" xmlns="http://www.w3.org/2000/svg" xmlns:xlink="http://www.w3.org/1999/xlink" x="0px" y="0px"
	 viewBox="0 0 70 70" style="enable-background:new 0 0 70 70;" xml:space="preserve">
<style type="text/css">
	.st0{fill:#CCCCCC;}
</style>
<g>
	<path class="st0" d="M22,42.3h-7.3c0.4-1.4,1.6-2.1,3.4-3c2.3-1.2,5.1-2.6,5.1-6.7c0-3.3-2.4-6-5.4-6c-3,0-5.4,2.7-5.4,6
		c0,0.6,0.5,1.1,1.1,1.1c0.6,0,1.1-0.5,1.1-1.1c0-2.1,1.4-3.8,3.2-3.8c1.8,0,3.2,1.7,3.2,3.8c0,2.6-1.5,3.4-3.8,4.7
		c-2.1,1.1-4.8,2.4-4.8,6.2c0,0.6,0.5,1.1,1.1,1.1H22c0.6,0,1.1-0.5,1.1-1.1C23.1,42.8,22.6,42.3,22,42.3L22,42.3z M22,42.3"/>
	<path class="st0" d="M63.7,56.9l-1.8,0.7c5.3-6.3,8.3-14.2,8.3-22.6c0-9.3-3.6-18.1-10.3-24.7C53.3,3.6,44.5,0,35.1,0
		c-7.2,0-14.1,2.2-20,6.3c-0.5,0.4-0.6,1.1-0.3,1.6c0.4,0.5,1.1,0.6,1.6,0.3c5.5-3.8,12-5.8,18.7-5.8c8.7,0,17,3.4,23.1,9.6
		c6.2,6.2,9.6,14.4,9.6,23.1c0,8.1-2.9,15.7-8.3,21.7l0.5-2.8c0.1-0.6-0.3-1.2-0.9-1.3c-0.6-0.1-1.2,0.3-1.3,0.9l-1.1,6.6
		c-0.1,0.4,0.1,0.8,0.4,1.1c0.2,0.2,0.5,0.3,0.7,0.3c0.1,0,0.3,0,0.4-0.1l6.2-2.4c0.6-0.2,0.9-0.9,0.6-1.5
		C65,56.9,64.3,56.6,63.7,56.9L63.7,56.9z M63.7,56.9"/>
	<path class="st0" d="M46.4,23c-0.6-0.2-1.2,0.1-1.4,0.7l-7.3,21.8c-0.2,0.6,0.1,1.2,0.7,1.4c0.1,0,0.2,0.1,0.4,0.1
		c0.5,0,0.9-0.3,1.1-0.8l7.3-21.8C47.3,23.9,47,23.2,46.4,23L46.4,23z M46.4,23"/>
	<path class="st0" d="M59.1,27.1c-0.2-0.3-0.6-0.5-1-0.5h-8.5c-0.6,0-1.1,0.5-1.1,1.1c0,0.6,0.5,1.1,1.1,1.1h6.7L49.8,43
		c-0.3,0.6,0,1.2,0.6,1.5c0.2,0.1,0.3,0.1,0.5,0.1c0.4,0,0.8-0.2,1-0.7l7.3-15.7C59.3,27.9,59.3,27.5,59.1,27.1L59.1,27.1z
		 M59.1,27.1"/>
	<path class="st0" d="M35.1,38.7h-1.3v-11c0-0.6-0.5-1.1-1.1-1.1c-0.6,0-1.1,0.5-1.1,1.1v11h-4.7L29,28c0.1-0.6-0.3-1.2-0.9-1.3
		c-0.6-0.1-1.2,0.3-1.3,0.9l-2.4,12.1c-0.1,0.3,0,0.7,0.2,0.9c0.2,0.3,0.5,0.4,0.9,0.4h6.1v2.5c0,0.6,0.5,1.1,1.1,1.1
		c0.6,0,1.1-0.5,1.1-1.1V41h1.3c0.6,0,1.1-0.5,1.1-1.1C36.3,39.2,35.8,38.7,35.1,38.7L35.1,38.7z M35.1,38.7"/>
	<path class="st0" d="M55.4,62.2c-0.4-0.5-1.1-0.6-1.6-0.3c-5.5,3.8-12,5.8-18.7,5.8c-8.7,0-17-3.4-23.1-9.6C5.8,52,2.4,43.7,2.4,35
		c0-8.1,2.9-15.7,8.3-21.7l-0.5,3c-0.1,0.6,0.3,1.2,0.9,1.3c0.1,0,0.1,0,0.2,0c0.5,0,1-0.4,1.1-1l1.1-6.8c0.1-0.4-0.1-0.8-0.4-1.1
		c-0.3-0.3-0.7-0.3-1.1-0.2l-6.4,2.5C5,11.3,4.7,12,4.9,12.6c0.2,0.6,0.9,0.9,1.5,0.6l2-0.8C3.1,18.7,0.1,26.6,0.1,35
		c0,9.3,3.6,18.1,10.3,24.7C17,66.4,25.8,70,35.1,70c7.2,0,14.1-2.2,20-6.3C55.6,63.4,55.8,62.7,55.4,62.2L55.4,62.2z M55.4,62.2"/>
</g>
</svg>
