<?xml version="1.0" encoding="utf-8"?>
<!-- Generator: Adobe Illustrator 21.1.0, SVG Export Plug-In . SVG Version: 6.00 Build 0)  -->
<svg version="1.1" id="Layer_1" xmlns="http://www.w3.org/2000/svg" xmlns:xlink="http://www.w3.org/1999/xlink" x="0px" y="0px"
	 viewBox="0 0 70 70" style="enable-background:new 0 0 70 70;" xml:space="preserve">
<style type="text/css">
	.st0{fill:#CCCCCC;}
</style>
<g>
	<path class="st0" d="M35,0C15.7,0,0,15.7,0,35c0,19.3,15.7,35,35,35s35-15.7,35-35C70,15.7,54.3,0,35,0L35,0z M35,67.7
		C16.9,67.7,2.3,53.1,2.3,35C2.3,16.9,16.9,2.3,35,2.3c18.1,0,32.7,14.7,32.7,32.7C67.7,53.1,53.1,67.7,35,67.7L35,67.7z M35,67.7"
		/>
	<g>
		<path class="st0" d="M36.2,41h9.6c0.6,0,1-0.4,1-1v-5.4c0-0.6-0.4-1-1-1h-9.6c-0.6,0-1,0.4-1,1v5.4c0,0.3,0.1,0.5,0.3,0.7
			C35.7,41,35.9,41,36.2,41z M37.1,39.1v-3.5h7.7v3.5H37.1z"/>
		<path class="st0" d="M19.9,33.2h4.8c0.6,0,1-0.4,1-1s-0.4-1-1-1h-4.8c-0.6,0-1,0.4-1,1S19.4,33.2,19.9,33.2z"/>
		<path class="st0" d="M27.2,33.2H32c0.6,0,1-0.4,1-1s-0.4-1-1-1h-4.8c-0.6,0-1,0.4-1,1S26.6,33.2,27.2,33.2z"/>
		<path class="st0" d="M19.9,35.6h7.8c0.6,0,1-0.4,1-1s-0.4-1-1-1h-7.8c-0.6,0-1,0.4-1,1S19.4,35.6,19.9,35.6z"/>
		<path class="st0" d="M32,33.7h-1.8c-0.6,0-1,0.4-1,1s0.4,1,1,1H32c0.6,0,1-0.4,1-1S32.5,33.7,32,33.7z"/>
		<path class="st0" d="M52.8,26.4c-0.5-0.6-1.1-1-1.9-1l-1.1-0.1v-2.6c0-1.5-1.2-2.8-2.8-2.8H19.3c-1.5,0-2.8,1.2-2.8,2.8v19.3
			c0,1.1,0.7,2.1,1.7,2.6c0.1,1.3,1.1,2.4,2.4,2.5l27.8,3.1l0.3,0c1.4,0,2.6-1.1,2.8-2.4l1.8-19.3C53.5,27.7,53.2,26.9,52.8,26.4z
			 M47.9,29.6v12.3c0,0.5-0.4,0.8-0.8,0.8H19.3c-0.5,0-0.8-0.4-0.8-0.8V29.6H47.9z M51.5,28L51.5,28l-1.8,19.4
			c0,0.2-0.1,0.4-0.3,0.6c-0.2,0.1-0.4,0.2-0.6,0.2L21,45c-0.3,0-0.5-0.2-0.6-0.4H47c1.5,0,2.8-1.2,2.8-2.8V27.1l1,0.1l0,0
			c0.2,0,0.4,0.1,0.5,0.3C51.4,27.6,51.5,27.9,51.5,28z M18.5,27.7v-2.9h29.4v2.9H18.5z M18.5,22.9v-0.2c0-0.5,0.4-0.8,0.8-0.8H47
			c0.5,0,0.8,0.4,0.8,0.8v0.2H18.5z"/>
	</g>
</g>
</svg>
