<?xml version="1.0" encoding="utf-8"?>
<!-- Generator: Adobe Illustrator 21.1.0, SVG Export Plug-In . SVG Version: 6.00 Build 0)  -->
<svg version="1.1" id="Layer_1" xmlns="http://www.w3.org/2000/svg" xmlns:xlink="http://www.w3.org/1999/xlink" x="0px" y="0px"
	 viewBox="0 0 70 70" style="enable-background:new 0 0 70 70;" xml:space="preserve">
<style type="text/css">
	.st0{fill:#CCCCCC;}
</style>
<g>
	<path class="st0" d="M35,0C15.7,0,0,15.7,0,35c0,19.3,15.7,35,35,35s35-15.7,35-35C70,15.7,54.3,0,35,0L35,0z M35,67.7
		C16.9,67.7,2.3,53.1,2.3,35C2.3,16.9,16.9,2.3,35,2.3c18.1,0,32.7,14.7,32.7,32.7C67.7,53.1,53.1,67.7,35,67.7L35,67.7z M35,67.7"
		/>
	<g>
		<path class="st0" d="M27.3,13.9H16.1v9.6h11.2v-1.9h7v-5.8h-7V13.9z M25.4,19.7v1.9H18v-5.8h7.4v1.9h7v1.9H25.4z"/>
		<path class="st0" d="M27.3,30.1H16.1v9.6h11.2v-1.9h7V32h-7V30.1z M25.4,35.8v1.9H18V32h7.4v1.9h7v1.9H25.4z"/>
		<path class="st0" d="M27.3,46.5H16.1v9.6h11.2v-1.9h7v-5.8h-7V46.5z M25.4,52.3v1.9H18v-5.8h7.4v1.9h7v1.9H25.4z"/>
		<path class="st0" d="M42.7,40.2h-7V46h7v1.9h11.2v-9.6H42.7V40.2z M44.6,42.1v-1.9H52V46h-7.4v-1.9h-7v-1.9H44.6z"/>
		<path class="st0" d="M42.7,22.1V24h-7v5.8h7v1.9h11.2v-9.6H42.7z M37.7,27.9v-1.9h7V24H52v5.8h-7.4v-1.9H37.7z"/>
	</g>
</g>
</svg>
