<?xml version="1.0" encoding="utf-8"?>
<!-- Generator: Adobe Illustrator 21.1.0, SVG Export Plug-In . SVG Version: 6.00 Build 0)  -->
<svg version="1.1" id="Layer_1" xmlns="http://www.w3.org/2000/svg" xmlns:xlink="http://www.w3.org/1999/xlink" x="0px" y="0px"
	 viewBox="0 0 204 46" style="enable-background:new 0 0 204 46;" xml:space="preserve">
<style type="text/css">
	.st0{fill:#002F87;}
	.st1{fill:#E24301;}
	.st2{fill:#55565A;}
</style>
<g>
	<path class="st0" d="M173.8,11.8c4.6-3.2,9.6-4.4,13.7-3.8V0.6h-35v35.3h12c-0.1-0.2-0.3-0.5-0.4-0.8
		C160.8,28.2,165.1,17.7,173.8,11.8"/>
	<path class="st1" d="M187.3,12c-9.2,0-16.7,7.5-16.7,16.7c0,1.1,0.1,2.1,0.3,3.1c0.4,1.8,1.4,2.4,2.3,2.7c0.4,0.2,0.8,0.3,1,0.3
		c1.8,0.1,3.6-0.3,5.4-1.4c2.4-1.5,4.1-3.9,5.1-6.6c-2.9,0.3-5.8,0.8-8.5,1.3l0.1-5.2l18.8-1.3l-0.1,17.7l-5.7,0.4c0,0,0,0,0,0
		c0-0.2,0.1-0.4,0.1-0.6c0.2-1.5,0.4-3,0.6-4.5c0.1-0.9,0.2-1.8,0.2-2.7c-0.7,0.9-1.5,1.8-2.4,2.6c-0.8,0.8-1.8,1.5-2.8,2.1
		c-0.6,0.4-1.2,0.7-1.8,1c-1.3,0.6-2.6,1.1-3.9,1.5c-1.1,0.3-3,0.4-4.4,0.5c3.1,3.6,7.6,5.8,12.7,5.8c9.2,0,16.7-7.5,16.7-16.7
		C204,19.5,196.5,12,187.3,12"/>
	<path class="st2" d="M16.8,17.7c-0.6-2.8-3-3.6-5.6-3.6c-5.8,0-7.9,5.1-7.8,9.5c0.3,6.1,2.1,9.4,8.9,9.5c1.6,0,3.2-0.3,4.7-0.8
		v-6.7h-5.4v-2.8h8.7v11.7c-2.7,0.8-5.5,1.4-8.2,1.4c-3.3,0-6.1-0.4-8.7-2.7C0.9,31,0,27,0,23.6c0-2.5,0.8-5.2,2-7.3
		c2.1-3.6,5.6-5.1,9.6-5.1c4,0,8.4,1.8,8.6,6.4H16.8z"/>
	<path class="st2" d="M27,27.8c-0.2,2.9,0.9,5.9,4.1,5.9c2.4,0,3.6-1,4-3.4h3.3C37.9,34.1,35,36,31.1,36c-5.3,0-7.4-3.7-7.4-8.6
		c0-4.8,2.4-8.9,7.7-8.9c4.9,0.1,7.3,3.2,7.3,7.8v1.5H27z M35.3,25.7c0.1-2.8-1.2-4.9-4.2-4.9c-2.6,0-4.1,2.2-4.1,4.9H35.3z"/>
	<path class="st2" d="M57.2,27.3c0,5.1-2.8,8.7-8.2,8.7c-5.4,0-8.2-3.6-8.2-8.7c0-5.1,2.8-8.7,8.2-8.7
		C54.4,18.5,57.2,22.1,57.2,27.3 M49,33.7c3.7,0,4.9-3,4.9-6.5c0-3.5-1.2-6.5-4.9-6.5c-3.7,0-4.9,3-4.9,6.5
		C44.1,30.8,45.3,33.7,49,33.7"/>
	<polygon class="st2" points="60.7,16.4 53.4,16.4 53.4,11.8 74.7,11.8 74.7,16.4 67.3,16.4 67.3,35.5 60.7,35.5 	"/>
	<path class="st2" d="M78.2,22.1L78.2,22.1c0.8-2.7,2.8-3.6,5.6-3.6v5.3c-0.5,0-0.9,0-1.3,0c-3.3,0-4.4,2-4.3,5.1v6.6h-6.2V23.2
		c0-1.5,0-2.5-0.2-4.2h6.3L78.2,22.1z"/>
	<path class="st2" d="M97.8,33.7c-1.4,1.6-3.1,2.3-5.2,2.3c-3.6,0-6.2-2.3-6.2-5.9V19h6.2v9.7c0.1,1.6,0.5,3.4,2.4,3.4
		c3.1,0,2.7-3.4,2.7-3.6V19h6.2v12.2c0,1.5,0,2.5,0.2,4.2h-6.3L97.8,33.7z"/>
	<path class="st2" d="M117.1,24.1c0-0.6-0.1-1-0.4-1.4c-0.3-0.4-0.8-0.6-1.7-0.6c-0.9,0-1.5,0.5-1.5,1.5c0,1.2,2.5,1.1,6.4,2.4
		c2,0.6,3.3,1.8,3.3,4.5c0,4.4-4.1,5.5-7.9,5.5c-4,0-8-0.8-7.9-5.8h5.9c-0.1,0.5,0.1,1.1,0.4,1.5c0.4,0.4,0.9,0.8,1.5,0.8
		c1.2,0,2.1-0.5,2.1-1.5c0-2.9-9.8-1.2-9.8-7.2c0-4.1,4.3-5.2,7.6-5.2c3.9,0,7.5,1,7.8,5.6H117.1z"/>
	<path class="st2" d="M128.2,19v-2.5l6.2-2.4V19h3.6v3.9h-3.6v6.5c0,0.4-0.3,2.6,1.2,2.6c0.8,0,1.7,0,2.4-0.1v3.7
		c-1.4,0.3-2.4,0.3-3.4,0.3c-4.2,0-6.8-0.6-6.5-5.6v-7.4h-3.2V19H128.2z"/>
	<path class="st2" d="M193.2,0.6c2.1,0,3.7,1.6,3.7,3.6c0,2.1-1.6,3.7-3.7,3.7c-2.1,0-3.7-1.6-3.7-3.7
		C189.4,2.2,191.1,0.6,193.2,0.6L193.2,0.6z M193.1,1.3c-1.7,0-2.9,1.4-2.9,3c0,1.7,1.3,3,3,3c1.7,0,2.9-1.3,2.9-3
		C196.1,2.6,194.8,1.3,193.1,1.3L193.1,1.3z M192.5,6.3h-0.7V2.5c0.4-0.1,0.8-0.1,1.3-0.1c0.6,0,1,0.1,1.2,0.3
		c0.2,0.2,0.4,0.5,0.4,0.8c0,0.5-0.3,0.8-0.8,0.9v0c0.3,0.1,0.5,0.4,0.6,0.9c0.1,0.6,0.2,0.8,0.3,1h-0.7c-0.1-0.1-0.2-0.5-0.3-1
		c-0.1-0.4-0.3-0.6-0.9-0.6h-0.5V6.3z M192.5,4.1h0.5c0.5,0,1-0.2,1-0.6c0-0.4-0.2-0.6-0.9-0.6c-0.3,0-0.4,0-0.6,0V4.1z"/>
	<path class="st2" d="M143.9,15.4c2.1,0,3.7,1.6,3.7,3.6c0,2.1-1.6,3.7-3.7,3.7c-2.1,0-3.7-1.6-3.7-3.7
		C140.1,17,141.7,15.4,143.9,15.4L143.9,15.4z M143.8,16.1c-1.7,0-2.9,1.4-2.9,3c0,1.7,1.3,3,3,3c1.7,0,2.9-1.3,2.9-3
		C146.7,17.4,145.5,16.1,143.8,16.1L143.8,16.1z M143.2,21.1h-0.7v-3.8c0.4-0.1,0.8-0.1,1.3-0.1c0.6,0,1,0.1,1.2,0.3
		c0.2,0.2,0.4,0.5,0.4,0.8c0,0.5-0.3,0.8-0.8,0.9v0c0.3,0.1,0.5,0.4,0.6,0.9c0.1,0.6,0.2,0.8,0.3,1h-0.7c-0.1-0.1-0.2-0.5-0.3-1
		c-0.1-0.4-0.3-0.6-0.9-0.6h-0.5V21.1z M143.2,18.9h0.5c0.5,0,1-0.2,1-0.6c0-0.4-0.2-0.6-0.9-0.6c-0.3,0-0.4,0-0.6,0V18.9z"/>
</g>
</svg>
