<?xml version="1.0" encoding="utf-8"?>
<!-- Generator: Adobe Illustrator 21.1.0, SVG Export Plug-In . SVG Version: 6.00 Build 0)  -->
<svg version="1.1" id="Layer_1" xmlns="http://www.w3.org/2000/svg" xmlns:xlink="http://www.w3.org/1999/xlink" x="0px" y="0px"
	 viewBox="0 0 70 70" style="enable-background:new 0 0 70 70;" xml:space="preserve">
<style type="text/css">
	.st0{fill:#CCCCCC;}
</style>
<g>
	<path class="st0" d="M35,0C15.7,0,0,15.7,0,35c0,19.3,15.7,35,35,35s35-15.7,35-35C70,15.7,54.3,0,35,0L35,0z M35,67.7
		C16.9,67.7,2.3,53.1,2.3,35C2.3,16.9,16.9,2.3,35,2.3c18.1,0,32.7,14.7,32.7,32.7C67.7,53.1,53.1,67.7,35,67.7L35,67.7z M35,67.7"
		/>
	<path class="st0" d="M39.5,28.2c0-2.5-2-4.5-4.5-4.5s-4.5,2-4.5,4.5v4.5h-3.4v13.5h15.8V32.7h-3.4V28.2z M32.7,28.2
		c0-1.2,1-2.3,2.3-2.3s2.3,1,2.3,2.3v4.5h-4.5V28.2z M40.6,35v9H29.4v-9H40.6z M40.6,35"/>
</g>
</svg>
