<?xml version="1.0" encoding="utf-8"?>
<!-- Generator: Adobe Illustrator 21.1.0, SVG Export Plug-In . SVG Version: 6.00 Build 0)  -->
<svg version="1.1" id="Layer_1" xmlns="http://www.w3.org/2000/svg" xmlns:xlink="http://www.w3.org/1999/xlink" x="0px" y="0px"
	 viewBox="0 0 65 70" style="enable-background:new 0 0 65 70;" xml:space="preserve">
<style type="text/css">
	.st0{fill:#CCCCCC;}
</style>
<g>
	<path class="st0" d="M39.5,18.7c0-3.9-3.1-7-7-7s-7,3.1-7,7v5.8h-5.8v22.2h25.7V24.5h-5.8V18.7z M27.8,18.7c0-2.6,2.1-4.7,4.7-4.7
		c2.6,0,4.7,2.1,4.7,4.7v5.8h-9.3V18.7z M43,26.8v17.5H22V26.8H43z M43,26.8"/>
	<path class="st0" d="M31.3,38.3v2.5c0,0.6,0.5,1.2,1.2,1.2c0.6,0,1.2-0.5,1.2-1.2v-2.5c2-0.5,3.5-2.3,3.5-4.5
		c0-2.6-2.1-4.7-4.7-4.7c-2.6,0-4.7,2.1-4.7,4.7C27.8,36,29.3,37.8,31.3,38.3L31.3,38.3z M32.5,31.5c1.3,0,2.3,1,2.3,2.3
		c0,1.3-1,2.3-2.3,2.3c-1.3,0-2.3-1-2.3-2.3C30.2,32.5,31.2,31.5,32.5,31.5L32.5,31.5z M32.5,31.5"/>
	<path class="st0" d="M32.5,0C15.1,0,1,14.1,1,31.5c0,16.5,12.7,30,28.8,31.4L24.7,68c-0.5,0.5-0.5,1.2,0,1.7
		c0.2,0.2,0.5,0.3,0.8,0.3c0.3,0,0.6-0.1,0.8-0.3l7-7c0.1-0.1,0.2-0.2,0.3-0.4c0.1-0.3,0.1-0.6,0-0.9c-0.1-0.1-0.1-0.3-0.3-0.4l-7-7
		c-0.5-0.5-1.2-0.5-1.6,0c-0.5,0.5-0.5,1.2,0,1.6l4.9,4.9C14.8,59,3.3,46.6,3.3,31.5c0-16.1,13.1-29.2,29.2-29.2
		c16.1,0,29.2,13.1,29.2,29.2c0,7.7-3,15-8.4,20.5c-0.5,0.5-0.4,1.2,0,1.7c0.5,0.5,1.2,0.4,1.7,0c5.9-5.9,9.1-13.8,9.1-22.2
		C64,14.1,49.9,0,32.5,0L32.5,0z M32.5,0"/>
</g>
</svg>
