<?xml version="1.0" encoding="utf-8"?>
<!-- Generator: Adobe Illustrator 21.1.0, SVG Export Plug-In . SVG Version: 6.00 Build 0)  -->
<svg version="1.1" id="Layer_1" xmlns="http://www.w3.org/2000/svg" xmlns:xlink="http://www.w3.org/1999/xlink" x="0px" y="0px"
	 viewBox="0 0 70 70" style="enable-background:new 0 0 70 70;" xml:space="preserve">
<style type="text/css">
	.st0{fill:#CCCCCC;}
</style>
<g>
	<path class="st0" d="M35,0C15.7,0,0,15.7,0,35c0,19.3,15.7,35,35,35s35-15.7,35-35C70,15.7,54.3,0,35,0L35,0z M35,67.7
		C16.9,67.7,2.3,53.1,2.3,35C2.3,16.9,16.9,2.3,35,2.3c18.1,0,32.7,14.7,32.7,32.7C67.7,53.1,53.1,67.7,35,67.7L35,67.7z M35,67.7"
		/>
	<g>
		<path class="st0" d="M51.6,29.1C51.5,20,44.1,12.7,35,12.7c-9.1,0-16.5,7.3-16.6,16.4c-3.7,0.3-6.5,3.4-6.5,7.2v0.8
			c0,4,3.2,7.2,7.2,7.2h0.2l2.8,4.5c2.1,3.3,5.7,5.3,9.6,5.3h0.4c0.5,1.5,1.8,2.5,3.3,2.5c2,0,3.5-1.6,3.5-3.5c0-2-1.6-3.5-3.5-3.5
			c-1.5,0-2.9,1-3.3,2.5h-0.4c-3.2,0-6.1-1.6-7.7-4.3l-2.1-3.3h0.1c1,0,1.9-0.9,1.9-1.9V30.9c0-1-0.9-1.9-1.9-1.9h-1.4
			c0.1-7.8,6.6-14.2,14.4-14.2S49.3,21.2,49.4,29h-1.4c-1,0-1.9,0.9-1.9,1.9v11.4c0,1,0.9,1.9,1.9,1.9h2.9c4,0,7.2-3.2,7.2-7.2v-0.8
			C58.2,32.5,55.3,29.4,51.6,29.1z M56,36.2v0.8c0,2.8-2.3,5-5,5h-2.6V31.2h2.6C53.7,31.2,56,33.5,56,36.2z M14,36.2
			c0-2.8,2.3-5,5-5h2.6v10.9h-2.6c-2.8,0-5-2.3-5-5V36.2z M34,53c0-0.8,0.6-1.4,1.4-1.4c0.8,0,1.4,0.6,1.4,1.4
			c0,0.8-0.6,1.4-1.4,1.4C34.7,54.4,34,53.8,34,53z"/>
		<path class="st0" d="M41.9,18.9L41.9,18.9c-0.1,0-0.2-0.1-0.3-0.2l0,0c-0.1-0.1-0.2-0.2-0.3-0.2c-0.2-0.2-0.5-0.2-0.8-0.1
			c-0.3,0.1-0.5,0.3-0.7,0.5c-0.3,0.6-0.1,1.2,0.4,1.5l0,0c0.1,0,0.2,0.1,0.3,0.2c0.1,0.1,0.3,0.2,0.4,0.2c0.2,0.1,0.4,0.1,0.5,0.1
			c0.4,0,0.7-0.2,0.9-0.5C42.6,19.8,42.4,19.2,41.9,18.9z"/>
		<path class="st0" d="M37.6,17.1c-0.8-0.2-1.7-0.3-2.6-0.3c-3.5,0-6.9,1.5-9.2,4.2c-0.2,0.2-0.3,0.5-0.3,0.8c0,0.3,0.2,0.6,0.4,0.7
			l0,0c0.2,0.1,0.4,0.3,0.7,0.3c0.3,0,0.6-0.1,0.8-0.4c1.9-2.2,4.7-3.5,7.6-3.5c0.7,0,1.4,0.1,2.2,0.2c0.6,0.1,1.1-0.2,1.3-0.8
			c0.1-0.3,0-0.6-0.1-0.8C38.2,17.3,37.9,17.1,37.6,17.1z"/>
	</g>
</g>
</svg>
