<?xml version="1.0" encoding="utf-8"?>
<!-- Generator: Adobe Illustrator 21.1.0, SVG Export Plug-In . SVG Version: 6.00 Build 0)  -->
<svg version="1.1" id="Layer_1" xmlns="http://www.w3.org/2000/svg" xmlns:xlink="http://www.w3.org/1999/xlink" x="0px" y="0px"
	 viewBox="0 0 54 67"  style="enable-background:new 0 0 54 67;" xml:space="preserve">
<style type="text/css">
	.st0{fill:#F3BD11;}
	.st1{fill-rule:evenodd;clip-rule:evenodd;fill:#FFFFFF;}
</style>
<g>
	<path class="st0" d="M27,0C12.2,0,0.1,12.1,0.1,26.9c0,1.7,0.2,3.4,0.5,5c0,0.1,0.1,0.4,0.2,0.9c0.4,1.8,1,3.6,1.8,5.3
		c2.9,6.8,9.3,17.3,23.2,28.5c0.4,0.3,0.8,0.4,1.2,0.4c0.4,0,0.8-0.1,1.2-0.4c13.9-11.2,20.3-21.7,23.2-28.5
		c0.8-1.7,1.4-3.5,1.8-5.3c0.1-0.5,0.2-0.8,0.2-0.9c0.3-1.7,0.5-3.4,0.5-5C53.8,12.1,41.8,0,27,0L27,0z M49.6,31.2"/>
</g>
<g>
	<path class="st1" d="M39.8,27.9l-0.7,7.7c-0.2,2.1-2.1,3.9-4.2,3.9h-4.2l1-11.5H39.8z M32.9,15h4.2c2.1,0,3.7,1.7,3.5,3.9L40,26.6
		h-8.1L32.9,15z M21.1,39.5h-4.2c-2.1,0-3.7-1.7-3.5-3.9l0.7-7.7h8.1L21.1,39.5z M19,15h4.2l-1,11.5h-8.1l0.7-7.7
		C15,16.8,16.9,15,19,15z"/>
	<polygon class="st1" points="24.6,15 31.6,15 29.4,39.5 22.4,39.5 	"/>
</g>
</svg>
