<?xml version="1.0" encoding="utf-8"?>
<!-- Generator: Adobe Illustrator 21.1.0, SVG Export Plug-In . SVG Version: 6.00 Build 0)  -->
<svg version="1.1" id="Layer_1" xmlns="http://www.w3.org/2000/svg" xmlns:xlink="http://www.w3.org/1999/xlink" x="0px" y="0px"
	 viewBox="0 0 19 24" style="enable-background:new 0 0 19 24;" xml:space="preserve">
<style type="text/css">
	.st0{fill:#F3BD11;}
</style>
<g>
	<path class="st0" d="M9.5,0.2C4.3,0.2,0,4.4,0,9.7c0,0.6,0.1,1.2,0.2,1.8c0,0,0,0.1,0.1,0.3c0.1,0.6,0.4,1.3,0.6,1.9
		c1,2.4,3.3,6.1,8.2,10.1c0.1,0.1,0.3,0.1,0.4,0.1c0.1,0,0.3,0,0.4-0.1c4.9-4,7.2-7.7,8.2-10.1c0.3-0.6,0.5-1.2,0.6-1.9
		c0-0.2,0.1-0.3,0.1-0.3c0.1-0.6,0.2-1.2,0.2-1.8C19,4.4,14.7,0.2,9.5,0.2L9.5,0.2z M17.5,11.2C17.5,11.2,17.5,11.2,17.5,11.2
		c0,0.1,0,0.1,0,0.2v0c-0.1,0.6-0.3,1.1-0.6,1.6c0,0,0,0,0,0c-0.9,2.2-3,5.6-7.4,9.2c-4.4-3.7-6.5-7-7.4-9.2c0,0,0,0,0,0
		c-0.2-0.5-0.4-1.1-0.6-1.6v0c0-0.1,0-0.2,0-0.2c0,0,0,0,0,0c-0.1-0.5-0.1-1-0.1-1.5c0-4.5,3.7-8.2,8.2-8.2c4.5,0,8.2,3.7,8.2,8.2
		C17.6,10.2,17.6,10.7,17.5,11.2L17.5,11.2z M17.5,11.2"/>
	<path class="st0" d="M9.5,3.7c-3.3,0-6,2.7-6,6c0,3.3,2.7,6,6,6c3.3,0,6-2.7,6-6C15.5,6.4,12.8,3.7,9.5,3.7L9.5,3.7z M9.5,14.4
		c-2.6,0-4.7-2.1-4.7-4.7c0-2.6,2.1-4.7,4.7-4.7c2.6,0,4.7,2.1,4.7,4.7C14.2,12.3,12.1,14.4,9.5,14.4L9.5,14.4z M9.5,14.4"/>
</g>
</svg>
