<?xml version="1.0" encoding="utf-8"?>
<!-- Generator: Adobe Illustrator 21.1.0, SVG Export Plug-In . SVG Version: 6.00 Build 0)  -->
<svg version="1.1" id="Layer_1" xmlns="http://www.w3.org/2000/svg" xmlns:xlink="http://www.w3.org/1999/xlink" x="0px" y="0px"
	 viewBox="0 0 25 20" style="enable-background:new 0 0 25 20;" xml:space="preserve">
<style type="text/css">
	.st0{fill:#F3BD11;}
</style>
<g>
	<path class="st0" d="M21.9,0.5H3.1C1.4,0.5,0,1.9,0,3.5v12.9c0,1.7,1.4,3.1,3.1,3.1h18.9c1.7,0,3.1-1.4,3.1-3.1V3.5
		C25,1.9,23.6,0.5,21.9,0.5L21.9,0.5z M23.6,16.5c0,0.9-0.7,1.7-1.7,1.7H3.1c-0.9,0-1.7-0.7-1.7-1.7V3.5c0-0.9,0.7-1.7,1.7-1.7h18.9
		c0.9,0,1.7,0.7,1.7,1.7L23.6,16.5L23.6,16.5z M23.6,16.5"/>
	<path class="st0" d="M15.8,9.8l6.1-5.5c0.3-0.3,0.3-0.7,0.1-1c-0.3-0.3-0.7-0.3-1-0.1l-8.4,7.6l-1.6-1.5c0,0,0,0,0,0
		c0,0-0.1-0.1-0.1-0.1l-6.7-6c-0.3-0.3-0.7-0.2-1,0.1c-0.3,0.3-0.2,0.7,0.1,1l6.2,5.5l-6.2,5.8c-0.3,0.3-0.3,0.7,0,1
		c0.1,0.1,0.3,0.2,0.5,0.2c0.2,0,0.3-0.1,0.5-0.2l6.3-5.9l1.7,1.5c0.1,0.1,0.3,0.2,0.5,0.2c0.2,0,0.3-0.1,0.5-0.2l1.7-1.6l6.2,5.9
		c0.1,0.1,0.3,0.2,0.5,0.2c0.2,0,0.4-0.1,0.5-0.2c0.3-0.3,0.3-0.7,0-1L15.8,9.8z M15.8,9.8"/>
</g>
</svg>
