<?xml version="1.0" encoding="utf-8"?>
<!-- Generator: Adobe Illustrator 21.1.0, SVG Export Plug-In . SVG Version: 6.00 Build 0)  -->
<svg version="1.1" id="Layer_1" xmlns="http://www.w3.org/2000/svg" xmlns:xlink="http://www.w3.org/1999/xlink" x="0px" y="0px"
	 viewBox="0 0 23 23" style="enable-background:new 0 0 23 23;" xml:space="preserve">
<style type="text/css">
	.st0{fill:#F3BD11;}
</style>
<g>
	<path class="st0" d="M18.2,14.2c-0.5-0.5-1-0.8-1.6-0.8c-0.6,0-1.2,0.3-1.7,0.7l-1.5,1.5c-0.1-0.1-0.3-0.1-0.4-0.2
		c-0.2-0.1-0.3-0.2-0.5-0.3c-1.4-0.9-2.7-2.1-4-3.6c-0.6-0.8-1-1.4-1.3-2.1c0.4-0.4,0.8-0.7,1.1-1.1c0.1-0.1,0.3-0.3,0.4-0.4
		c1-1,1-2.3,0-3.4L7.4,3.4C7.2,3.3,7.1,3.1,6.9,2.9C6.6,2.6,6.3,2.3,6,2C5.6,1.6,5,1.3,4.4,1.3C3.8,1.3,3.2,1.6,2.8,2l0,0L1.1,3.7
		C0.5,4.3,0.1,5.1,0,6c-0.1,1.4,0.3,2.7,0.6,3.6c0.8,2.1,2,4.1,3.7,6.2c2.1,2.5,4.7,4.5,7.6,6c1.1,0.5,2.6,1.2,4.3,1.3
		c0.1,0,0.2,0,0.3,0c1.1,0,2.1-0.4,2.8-1.2c0,0,0,0,0,0c0.3-0.3,0.5-0.6,0.8-0.9c0.2-0.2,0.4-0.4,0.6-0.6c0.5-0.5,0.7-1.1,0.7-1.7
		c0-0.6-0.3-1.2-0.7-1.7L18.2,14.2z M19.9,19.4C19.9,19.4,19.9,19.4,19.9,19.4c-0.2,0.2-0.4,0.4-0.6,0.6c-0.3,0.3-0.6,0.6-0.9,1
		c-0.5,0.5-1.1,0.8-1.8,0.8c-0.1,0-0.2,0-0.2,0c-1.4-0.1-2.8-0.7-3.8-1.1c-2.7-1.3-5.2-3.2-7.2-5.6c-1.7-2-2.8-3.8-3.5-5.8
		C1.4,7.9,1.3,7,1.3,6.1c0-0.6,0.3-1,0.7-1.4L3.7,3c0.2-0.2,0.5-0.3,0.7-0.3C4.7,2.6,5,2.8,5.1,3l0,0C5.4,3.3,5.7,3.6,6,3.9
		C6.2,4,6.3,4.2,6.5,4.3l1.3,1.3c0.5,0.5,0.5,1,0,1.5C7.7,7.3,7.5,7.4,7.4,7.6C7,8,6.6,8.4,6.2,8.8c0,0,0,0,0,0
		C5.7,9.2,5.8,9.6,5.9,9.9l0,0c0.3,0.8,0.8,1.6,1.6,2.6l0,0c1.3,1.7,2.8,2.9,4.3,3.9c0.2,0.1,0.4,0.2,0.6,0.3
		c0.2,0.1,0.3,0.2,0.5,0.3c0,0,0,0,0.1,0c0.2,0.1,0.3,0.1,0.5,0.1c0.4,0,0.7-0.3,0.7-0.3l1.7-1.7c0.2-0.2,0.4-0.4,0.7-0.4
		c0.3,0,0.5,0.2,0.7,0.4l2.7,2.7C20.4,18.3,20.4,18.8,19.9,19.4L19.9,19.4z M19.9,19.4"/>
	<path class="st0" d="M12.4,5.5c1.3,0.2,2.4,0.8,3.3,1.7c0.9,0.9,1.5,2.1,1.7,3.3c0.1,0.3,0.3,0.5,0.6,0.5c0,0,0.1,0,0.1,0
		c0.4-0.1,0.6-0.4,0.5-0.8c-0.3-1.5-1-2.9-2.1-4.1c-1.1-1.1-2.5-1.8-4.1-2.1c-0.4-0.1-0.7,0.2-0.8,0.5C11.8,5.1,12.1,5.4,12.4,5.5
		L12.4,5.5z M12.4,5.5"/>
	<path class="st0" d="M23,10.1c-0.4-2.5-1.6-4.8-3.5-6.7c-1.8-1.8-4.1-3-6.7-3.5c-0.4-0.1-0.7,0.2-0.8,0.5c-0.1,0.4,0.2,0.7,0.5,0.8
		c2.3,0.4,4.3,1.5,6,3.1c1.6,1.6,2.7,3.7,3.1,6c0.1,0.3,0.3,0.5,0.6,0.5c0,0,0.1,0,0.1,0C22.8,10.8,23,10.5,23,10.1L23,10.1z
		 M23,10.1"/>
</g>
</svg>
